<?xml version="1.0" standalone="no"?>
<!DOCTYPE svg PUBLIC "-//W3C//DTD SVG 20010904//EN"
 "http://www.w3.org/TR/2001/REC-SVG-20010904/DTD/svg10.dtd">
<svg version="1.0" xmlns="http://www.w3.org/2000/svg"
 width="1024.000000pt" height="1024.000000pt" viewBox="0 0 1024.000000 1024.000000"
 preserveAspectRatio="xMidYMid meet">
<metadata>
Created by potrace 1.11, written by Peter Selinger 2001-2013
</metadata>
<g transform="translate(0.000000,1024.000000) scale(0.100000,-0.100000)"
fill="#000000" stroke="none">
<path d="M7430 10152 c-138 -166 -217 -307 -256 -455 -27 -104 -29 -118 -28
-242 0 -132 19 -216 75 -329 124 -250 386 -451 739 -566 198 -64 216 -65 153
-7 -161 148 -473 649 -562 901 -42 118 -76 270 -87 381 -3 33 -7 71 -10 85 -2
14 -4 76 -5 138 0 61 -2 112 -3 112 -1 0 -8 -8 -16 -18z"/>
<path d="M8935 8675 c-305 -71 -625 -232 -870 -437 -372 -310 -610 -722 -766
-1326 -28 -110 -94 -393 -104 -451 -2 -14 -16 -87 -30 -161 -14 -74 -28 -148
-31 -165 -6 -41 -42 -243 -49 -280 -10 -57 -64 -340 -70 -370 -19 -98 -60
-280 -76 -342 -11 -40 -22 -81 -24 -92 -20 -105 -130 -402 -193 -521 -88 -167
-224 -327 -449 -530 -374 -337 -769 -498 -1340 -545 -221 -19 -768 -19 -872 0
-21 4 -10 -12 64 -83 50 -48 128 -120 175 -161 47 -40 97 -84 112 -97 80 -69
301 -240 433 -333 311 -221 603 -389 889 -511 105 -44 346 -128 406 -140 19
-5 67 -15 105 -23 298 -65 648 -54 1055 34 537 116 998 380 1289 739 29 36 58
72 65 81 33 40 140 220 181 304 113 231 190 518 222 825 15 142 7 668 -11 765
-2 11 -7 45 -10 76 -4 31 -9 67 -11 79 -2 12 -7 43 -10 68 -23 203 -116 544
-281 1041 -143 430 -214 689 -239 866 -12 83 -17 121 -22 140 -12 55 -10 415
2 490 15 86 16 91 40 176 75 275 303 656 528 881 35 35 28 35 -108 3z"/>
<path d="M3258 7676 c-1 -2 -60 -6 -130 -10 -69 -3 -132 -8 -140 -10 -7 -3
-33 -7 -58 -10 -345 -42 -733 -203 -1020 -422 -400 -305 -641 -710 -736 -1234
-19 -103 -26 -453 -11 -563 21 -165 73 -330 157 -502 55 -112 184 -318 230
-367 11 -12 20 -26 20 -32 0 -5 2 -7 4 -5 3 3 1 22 -5 44 -30 123 -38 207 -34
365 2 91 6 183 10 205 21 133 94 347 158 465 70 131 192 290 290 379 22 20 54
49 71 64 52 48 206 146 296 188 203 97 374 136 605 136 275 1 493 -54 710
-178 145 -83 323 -234 407 -344 12 -16 25 -32 28 -35 13 -11 80 -109 110 -160
99 -168 182 -380 216 -555 2 -11 6 -31 9 -45 5 -23 12 -75 20 -145 5 -42 6
-296 1 -320 -2 -11 -7 -42 -10 -70 -25 -186 -80 -362 -169 -540 -71 -142 -147
-252 -250 -360 -49 -52 -86 -95 -82 -95 21 0 179 67 300 127 78 39 271 156
285 173 3 4 31 26 63 49 80 58 253 227 324 314 32 40 61 74 64 77 14 11 133
199 174 274 65 120 156 345 180 446 13 54 54 264 60 305 13 97 13 390 0 502
-56 478 -267 914 -605 1253 -149 150 -288 256 -470 359 -83 46 -263 131 -290
137 -3 0 -14 4 -25 8 -64 25 -100 38 -102 37 -2 0 -8 1 -15 3 -79 25 -198 50
-328 71 -19 3 -91 8 -160 11 -69 3 -130 7 -137 9 -6 2 -13 2 -15 1z"/>
<path d="M2830 5551 c-422 -92 -722 -448 -735 -875 -2 -66 -2 -123 1 -128 3
-4 40 28 82 71 143 146 302 233 512 282 61 14 279 18 350 6 336 -54 627 -281
757 -590 18 -43 33 -85 33 -93 0 -25 17 -15 33 19 98 212 114 476 42 692 -52
154 -153 305 -271 405 -79 67 -97 79 -184 127 -163 91 -425 126 -620 84z"/>
<path d="M6135 2019 c-5 -17 -31 -174 -40 -244 -3 -27 -8 -66 -10 -85 -18
-136 -25 -460 -12 -585 37 -365 144 -665 310 -870 47 -57 159 -166 166 -160 2
3 5 31 7 62 5 89 14 215 19 248 34 222 32 213 71 370 40 164 108 366 171 514
94 221 254 513 364 664 27 37 49 69 49 72 0 2 -13 0 -29 -5 -17 -4 -61 -11
-98 -15 -37 -4 -78 -8 -90 -10 -12 -2 -91 -7 -175 -11 -357 -16 -466 -6 -680
63 -10 3 -20 -1 -23 -8z"/>
</g>
</svg>
