<?xml version="1.0" encoding="utf-8"?>
<!-- Generator: Adobe Illustrator 23.0.1, SVG Export Plug-In . SVG Version: 6.00 Build 0)  -->
<svg version="1.1" id="Layer_1" xmlns="http://www.w3.org/2000/svg" xmlns:xlink="http://www.w3.org/1999/xlink" x="0px" y="0px"
	 viewBox="0 0 1058.5 463" style="enable-background:new 0 0 1058.5 463;" xml:space="preserve">
<style type="text/css">
	.st0{fill:#5DE7C8;}
	.st1{fill:#EEBF70;}
	.st2{fill:#FEDB29;}
	.st3{fill:#B98361;}
	.st4{fill:#FFE2B4;}
	.st5{fill:#EF5144;}
	.st6{fill:#FF873C;}
	.st7{fill:#EA9A00;}
	.st8{fill:#161616;}
	.st9{fill:#404040;}
</style>
<g transform="translate(-80.113 -100.992)">
	<path class="st0" d="M914.2,446.3h60.9c6.6,0,12,5.4,12,12v89.5c0,6.6-5.4,12-12,12h-60.9c-6.6,0-12-5.4-12-12v-89.5
		C902.2,451.7,907.6,446.3,914.2,446.3z"/>
	<path class="st1" d="M953.7,407c-13.7,0-26.9,1.1-41.1,2.1c-37.6,2.4-74.7,12.6-82,30.6c-11.4,27.9-7.8,110.3-1.6,110.7
		c5.2,0.3,15.5-4.4,18.4-8.5c3.5-4.8,1.5-38.3,2.3-55.6c0.4-9.1-3.1-40,23.3-41.8c-9.9,4.6-13.3,93.2-11.3,99.3
		c0.2,0.7,18.7,5.3,21.4,0.1c3.9-7.5,6.5-76.5,14.4-86.6c14.1-18.1,45.9,5.1,56.7-16.8C958,433,963,411.2,953.7,407L953.7,407z"/>
	<path class="st2" d="M650.5,387.6c-4.4,30.2-13.3,63.4-10.9,93.5c1.8,23.4,5.2,78.6,25.1,67.1c13.5-5.2,5.9-11.1,2.9-66
		c-1.7-31.2,8.8-61.6,23.3-89.1c5.2,30,7.6,35.6,7.8,66.1c0.3,51-3.2,93.3,18.9,84.9c13.4-6.1,9.1-67.3,8.8-86.9
		c-0.4-22.6,1.3-90-25-97.1C669.5,351.6,654.7,358.6,650.5,387.6z"/>
	<path class="st3" d="M361.1,508.9c-11.8,0-7.5,10.1-6.8,20s-1.2,22.3,8.7,23.7c10.4,1.4,8.3-15.4,7.8-24.6
		C370.5,522.4,367.6,508.9,361.1,508.9L361.1,508.9z"/>
	<path class="st3" d="M324.9,510.8c-9,0-8,11-6.8,22c1.5,13.8,5.5,27.5,14.6,19.6c3.2-2.8,3.3-11.1,2.6-19.6
		C334.4,521.9,331.3,510.8,324.9,510.8L324.9,510.8z"/>
	<path class="st0" d="M216.4,438.4h60.9c6.6,0,12,5.4,12,12v95.2c0,6.6-5.4,12-12,12h-60.9c-6.6,0-12-5.4-12-12v-95.2
		C204.4,443.8,209.8,438.4,216.4,438.4z"/>
	<path class="st2" d="M286.1,406.4c-6.3,0.4-12.6,1.4-19,2c-4.1,0.4-21.2-1-24,0.4c-6.2,3.3-5.9,21.8-3.3,27.9
		c10.2,22.8,44.2,2.3,58.6,16.9c2.5,2.5,2.4,9.5,2.9,12.9c2,12.4,5.6,24.4,8.4,36.7c2.9,12.7,0.1,15.7,10.7,17.8
		c7,1.4,15.3-2.1,16.7-7.8c2-8.7-5-27.2-6-36.3c-1.1-10.7-2.1-21.4-3.7-32c13.7,5.3,12.1,3.6,15.2,18.9v0
		c3.5,15.9,3.9,32.5,7.2,48.5c0-0.1,0-0.1,0-0.2c0,0.2,0.1,0.5,0.1,0.7l0-0.1c0,0.1,0,0.2,0.1,0.3l0,0c1.2,6.1,17.9,8.1,21.8,2.4
		c4-5.9-1.7-29-2.2-36.8c-1-14.6,1.8-36-8.6-47.8l0.1,0.1c-2.5-2.8-3.6-2.8-6.4-3.8c0.1,0,0.1,0.1,0.2,0.1
		c-9.6-3.3-20.1-3.9-29.8-7.2l0.2,0.1c-10.6-3.7-20.6-4.8-30.3-10.8l0.1,0.1C292,407,289.8,406.2,286.1,406.4L286.1,406.4z"/>
	<path class="st0" d="M460.6,441.1h60.9c6.6,0,12,5.4,12,12v89.5c0,6.6-5.4,12-12,12h-60.9c-6.6,0-12-5.4-12-12v-89.5
		C448.6,446.5,453.9,441.1,460.6,441.1z"/>
	<path class="st4" d="M488,256.4c-12.3,0-33,25.9-9.3,46.1c-1,9.2-22.1,14.2-27.9,17.8c-18.4,11.7,2.9,18.5,20.4,18.6
		c10.1,0.1,68.9,0,58.6-15.8c-6.6-10.1-39-17.4-29.5-19.5C509.8,301.5,522,258.6,488,256.4L488,256.4z"/>
	<path class="st5" d="M467.1,311.5c-1-3.5-5.8,41.3-13.3,83.1c-6.6,36.4-35.1,60.3-3.2,76.3c24.2,12.1,88.6,10.7,88-19.3
		c-0.5-25.9-9.5-27.8-15.2-48.2c-10.8-38.4-21.2-84.1-21.2-84.1C491.4,333.2,471,325.6,467.1,311.5z"/>
	<path class="st2" d="M674.8,101h288.9c4.3,0,7.8,3.5,7.8,7.8v211.7c0,4.3-3.5,7.8-7.8,7.8H674.8c-4.3,0-7.8-3.5-7.8-7.8V108.8
		C667,104.5,670.5,101,674.8,101z"/>
	<path class="st2" d="M258.2,151.5H456c2.2,0,4,1.8,4,4v108.3c0,2.2-1.8,4-4,4H258.2c-2.2,0-4-1.8-4-4V155.5
		C254.2,153.3,256,151.5,258.2,151.5z"/>
	<path class="st2" d="M1018.4,289h113.4c3.8,0,6.8,3.1,6.8,6.8V351c0,3.8-3.1,6.8-6.8,6.8h-113.4c-3.8,0-6.8-3.1-6.8-6.8v-55.2
		C1011.5,292.1,1014.6,289,1018.4,289z"/>
	<path class="st6" d="M300.8,323.5c-64.7,0-74.6-4-66.9,64.7c3.1,27.5,17.8,43.5,53.3,25.9c18-8.9,11.9-7,12.4-31.1
		C299.8,376.9,302.9,323.5,300.8,323.5L300.8,323.5z"/>
	<path class="st7" d="M299.1,350.4c-0.2,0.1-0.3,0.2-0.4,0.4l0,0c-0.2,0.1-0.4,0.3-0.5,0.6c-0.2,0.4-0.1,0.9,0.2,1.2
		c0.1,0.6,0.2,1.1,0.4,1.7c0.2,0.8,0.4,1.5,0.6,2.3l-0.1-0.3c0.1,0.4,0.2,0.7,0.3,1.1l-0.1-0.3c0.2,0.6,0.3,1.1,0.5,1.7
		c0,0.2,0.1,0.4,0.1,0.6c0.1,0.4,0.1,0.8,0.2,1.2c0,0.2,0.1,0.5,0.1,0.7c0.1,0.6,0.4,1.3,1,1.6c0.3,0.1,0.7,0.1,1,0
		c0.3-0.1,0.6-0.4,0.7-0.7c0-0.1,0.1-0.2,0.1-0.4c0-0.1,0-0.3,0-0.4c0-0.2-0.1-0.3-0.1-0.5c-0.1-0.3-0.2-0.6-0.3-0.9
		s-0.2-0.6-0.3-0.9c-0.2-0.7-0.5-1.3-0.7-2c-0.1-0.2-0.2-0.4-0.2-0.6c-0.4-1.4-0.9-2.8-1.3-4.2c0.1-0.3,0.1-0.5,0-0.8l0-0.1l0,0
		c0,0,0-0.1,0-0.1l0-0.1l0,0c-0.1-0.2-0.2-0.3-0.3-0.4c0-0.1,0-0.2-0.1-0.2c0-0.1,0-0.1-0.1-0.2c-0.1-0.1-0.2-0.2-0.4-0.2
		C299.2,350.3,299.2,350.4,299.1,350.4L299.1,350.4z"/>
	<path class="st3" d="M244.9,341.2c-15.6,0-9.1,21.7-2.8,28.8c7.6,8.6,20.5,14.8,31.5,17.3c19.3,4.4,38.8,0.9,58.3,1.6
		c6,0.2,30.2,5.2,24.5-7.8c4.8,4.7,30.2,0.1,33.4-3.5c9.5-10.8-22.8-11-27-11.3c-13.9-0.7-29.1-2.5-40.8-11
		c-6.8-4.9-10.7-12.6-20-11.9c-13.8,1.1-9.8,14.3-3.8,22.2c-8.9-0.1-27-5.1-33-8c-4.1-1.9-7.6-4.9-10.1-8.6
		C252.3,345.3,250.3,341.2,244.9,341.2L244.9,341.2z"/>
	<path class="st3" d="M300.9,239.1c-2.8,0-23.1,2.5-23.8,5.6c-20.9,4.1-17.6,23.1-15.8,41.2c0.6,6.5,0.2,13-1.2,19.3
		c-8.5-0.8-5.7,10.8-5,15.6l0-0.2c2.5,25.3,59.9,5.1,28-15c-0.1-1.6-0.2-3.3-0.1-4.9C318.9,315.6,308,239.1,300.9,239.1L300.9,239.1
		z"/>
	<path class="st4" d="M689.7,188.9c-10.5,0.5-28.8,0.8-29.2,15.3c-6.3,0.1-10.4,8-8.5,13.6c0.8,2,2.2,3.7,4,4.9c1.7,1,4.8,0.8,5.8,2
		c1.3,1.7,2,7.2,2.7,9.1c1.4,3.6,4.9,6.5,5.2,9.9c0.2,2.3,0.2,6.5,2.7,8.7c3.8,3.3,12.4,2.2,16.8,1.4s5.1-1.5,4.5-6.4
		c-0.7-5.8,0.4-3.8,4.6-7.8c4.8-4.5,6.3-11.5,6.1-17.9c9.7,3.3,12.2-18.1-0.2-17.7C704.8,195.3,698.2,188.9,689.7,188.9L689.7,188.9
		z"/>
	<path class="st4" d="M914,238c-6.7,0-18.2,3.9-23,8.6c-4,3.9-6.1,34,10.1,47.9c6.1,5.6,10.7,4.5,10.7,4.5
		c5.3,28.6,17.4,24.4,20.7,20.9c2.2-2.3,2.1-14.1,1-18.8c-0.4-1.9-1.2-7.6-0.2-9.5c15.7-26.8,3.6-43.3,1.9-46.2
		C932,240.1,920.2,238,914,238L914,238z"/>
	<path class="st8" d="M291,210.3c0,0,3.6,11.9-3.9,14.8c-17,6.6-27.1-4.6-41.1,9.6c-4.5,4.6,0.5,27,1.4,33.6
		c0.8,5.7,2.1,10,6.2,14.2c5.4,5.4,13.1,7.4,18.9,1.1c1.4-1.5,3.6-4.9,3.3-7.2c0,0-9.7-3-10.5-8.5c-1.3-8.7,4.4-8.7,8.1-6.5
		c14.2,8.7,10.8,5,14.7-9.5C320.1,254.5,322.5,210.3,291,210.3L291,210.3z"/>
	<path class="st8" d="M925.2,220.3c-6.5,0.3-12.9,1.3-19.2,2.7c-8.6,1.8-17.8,0.7-23.6-0.2c-3.9-0.7-5.1,10.6-5,14.3
		c0.6,10.5,20.7,14.1,44,13.6c3.4-0.2,4.9,10.7,6.2,9.6c5.2-4.3,8.5,1,5.9,7.3c-1,2.4-2,2.8-3.4,5.4c-1.2,2.3,1.5,8.1,3,10.2
		c5.4,7.6,10,3.8,14.9-4.1c4.9-8,4.6-46.1,1.8-49.9C944.9,222.8,932.6,220.3,925.2,220.3L925.2,220.3z"/>
	<path class="st8" d="M657.5,173.3c0,0,4,8-0.1,14.2c-2.9,4.4-1,16.9,0.3,18c1.9,1.5,6,0.6,7-0.2c1-0.8-7.3-14.5,19.1-13.8
		c13.9,0.4,16.4,6.2,15.6,12.2c-0.4,2.5,6.5,3.6,8.1-0.7c1.7-4.5,11.8-20.6-7.9-25.2c-9.4-2.2-27.6,1.7-32.7-1.5
		C665.4,175.2,657.5,173.3,657.5,173.3z"/>
	<path class="st8" d="M664.2,219.9c-5.7,0-5.6,26.2,19.9,26.2c28.5,0,22.9-31.1,19.8-24.1c-5.2,11.6-13,15.1-21.8,14.8
		C672.4,236.5,664,232,664.2,219.9C664.2,219.9,664.2,219.9,664.2,219.9z"/>
	<g transform="translate(447.959 244.38)">
		<path d="M73.7,49.2c-5.3-7.4-10.9-40.8-20.4-46c-4.7-2.6-13.7-4-19.4-2.7c-26.6,6.1-14,41.8-30,54.6c9,10.3,23.9,10.3,23.9,10.3
			c11.5-2.6-3.1-23.1-3.1-24.3c-2.4,0.6-3.6-1.9-3.6-3.7c-0.1-6.9,4.2-1.9,4.4-3.6c1.4-11.4,21-16.3,25.2-14.3
			c5.9,2.8,7.1,9.3,7.1,15.3c0,24.3-16,29.7-13.6,29.4C44.9,65.2,67.6,63.5,73.7,49.2z"/>
		<path d="M-20,63.7L-20,63.7L-20,63.7L-20,63.7z"/>
		<path d="M56.2,29.5"/>
	</g>
	<path class="st5" d="M941.3,300.1c-3.6,0-8.7,3.1-12.7,3.7c-5.1,0.7-11.4-1-15.9-0.2c-5.7,1-8.3,2.1-15.1,8.1
		c-9.7,8.5,1.1,60.8,1.6,72.2c0.4,7-2,21.5,4.9,25.3c7.5,4.1,23.6,1.7,32,1.2c5.1-0.3,17.8,1.6,22-1.7c6-4.7,2.8-30.5,2.5-38.1
		c-0.4-10.7,2.2-20.2,2.7-31c0.3-6.1,4.1-16.9,2.3-23C964.4,311.8,946.7,300.1,941.3,300.1L941.3,300.1z"/>
	<path class="st4" d="M585.8,239c-4.7-0.5-9.6,0.5-11.4,7c-3.8,13.9,18.8,29.1,31.8,19c1.6-1.2,3-4.9,2.2-9
		C607,248.7,591.6,239.7,585.8,239z"/>
	<path class="st4" d="M831.8,367.5c-5.2,0-18.7,3.4-16.7,11.2c1.4,5.2,8.4,4.4,12.4,4.1c5.1-0.5,15.6-1.6,15.5-8.5
		C843,368.4,836.2,367.5,831.8,367.5L831.8,367.5z"/>
	<path class="st4" d="M871.6,374.8c-4.5,0-11.6,2.3-15.2,4.8c-8.6,5.9-1.8,10.4,5.5,10.3c5.2,0,13.3-0.1,16.1-5.3
		C880.5,380.1,876.8,374.8,871.6,374.8L871.6,374.8z"/>
	<path class="st4" d="M476.9,453.3c-26.3,0.5-5.4,55.8-9.8,97.1c-0.6,5.6,17.4,8.2,18.6-18c0.4-9.5-0.9-44.5-0.7-63.8
		C484.9,464.3,485.7,453.1,476.9,453.3z"/>
	<path class="st4" d="M498.3,467.2c0,44.9-0.1,96.9,16.3,82.9c4.6-3.9,2.8-23.8,1.7-43.8c-1-20,5.2-56.9-12.8-52.2
		C499,455.3,498.3,464.1,498.3,467.2z"/>
	<path class="st6" d="M258.6,305.4c-27.7,0-46.4,15.6-31.1,44.7c13.3,25.4,15.1,7.5,34.7,5.8c2.5-0.2-6.8-17.3-8.2-20.8
		c17.4-3.1,27.3,17.8,27.3,16.6c3.7,6.2,17,14.1,17,14.1c14.8-5.8,23.8-10.3,21.2-14.4c-6.6-10.4-6-29.8-27.1-42.2
		c-13.4-7.9-6.8,8-15.1,6.5C273.4,314.9,255.6,305.4,258.6,305.4L258.6,305.4z"/>
	<path class="st2" d="M479.7,323.6c-6-6.5-7-12.9-7-12.9c-29.8,0-39.3,25.2-43.6,49.4c-4.4,24.3,1.7,23.9,24.2,24.8
		c-0.7,7.8-6.9,21.9-5.3,28.4c1.4,5.8,11.3,17.1,18.7,15.4c11.7-2.8,12-36.8,13-48C480.4,380.7,479.1,329.6,479.7,323.6z"/>
	<path class="st2" d="M535.9,325.2c-7.7-15.4-33.4-14.4-33.4-14.4c0.1,2.8-0.7,8-6.4,14.1c-1.8,22.2,2.7,82.8,11.4,98.8
		c4.3,8,5.7,10.8,17.5-1.2c10-10.1,6.4-18,0.7-34.1C565.4,390.9,550.2,353.9,535.9,325.2z"/>
	<path class="st6" d="M679.4,250.8c-17.3,0-27.7,3.9-33.6,9.3c-8.8,8.2-13.8,28.4-16.8,41.1c-13.2-18.5-12.7-41.4-22.7-39.6
		c-11.8,2.1-7.6,22-0.6,37.9c8.4,19,25.6,63.9,45.7,5.8c-0.2,9.2-3.2,65.9,2.1,69.1c2.7,1.6,55.9,1.8,67.9-1.2
		c3.5-0.9-3.9-11.1,9.1-9.6c7.2,0.8,10.8-16.6,15.2-25.8c7.1-15.2,9.9-24.6,2.5-40.1c-7.8-16.4-17.2-38.3-34.9-43.1
		C705.1,252.5,699.9,250.8,679.4,250.8z M722.2,299.6c10.3,9.6,13.4,15.9,1.9,37.4C724.1,336.8,722.6,305.2,722.2,299.6L722.2,299.6
		z"/>
	<path class="st9" d="M342.9,464.7c0-0.1-0.1-0.3-0.1-0.4C342.9,464.4,342.9,464.6,342.9,464.7z"/>
	<path class="st5" d="M832.2,538.6c-4.3,0-6.2,2.6-9.3,4.4c-4.8,2.9-10.3,2.4-15.3,4.7c-4.5,2.1-10.2,7-4,11.4
		c2.5,1.8,7.1,1,9.9,0.8c7.7-0.4,16.3-2.2,23.9-2c8,0.3,16.5,2.3,24.9,2.4c7.4,0.1,21-0.5,21.8-10.4c0.6-7.9-7.2-10.2-13.6-9.6
		c-5.6,0.5-17.4,6.8-22.6,4.7c-0.5-0.2-0.3-2.3-0.9-2.6c-1.7-1.1-3.5-1.9-5.5-2.4C838.5,539.2,835.4,538.7,832.2,538.6L832.2,538.6z
		"/>
	<path class="st5" d="M703.5,558c3.5,2.1,27.2,2.4,30.1,0.2c13.5-9.9-10.6-17.6-24.5-16.3C699.6,542.8,697.6,554.4,703.5,558z"/>
	<path class="st5" d="M660.5,540.5c-7.4,0-34.2,9.2-33.8,15.5c0.3,4.3,10.3,7,32.7,2.9C679.9,555.3,682.3,540.5,660.5,540.5
		L660.5,540.5z"/>
	<path class="st5" d="M508.6,544.2c-5.8,0-14.3-0.9-17.5,5c-6.5-9.8-43-1.5-33.7,11.1c3.7,5,29,4.3,33.5,0c4.1,5.7,20.8,4,26.5,1.2
		C529,555.6,518.8,544.2,508.6,544.2L508.6,544.2z"/>
	<path class="st5" d="M362,544.1c-1.8,0-14.5,4.3-12.3,6.3c-6.5-1.2-10-5.4-16.8-5.4c-2.9,0-13.8,0.1-15.6,1.3
		c-7.5,2-4.7,11.9-0.1,14.3c4.1,2.1,11.7,1.4,16.1,1.4c11.3-0.1,19.6-1.1,30.6,0.2c8.2,0.9,17.2,0.1,25.3-1.4
		c7.7-1.4,12.7-5.6,3.3-9.2c-3.7-1.4-8.3-0.8-12.2-1.7C374.4,548.5,368.1,544.1,362,544.1L362,544.1z"/>
	<path class="st8" d="M307.4,389.6h583.5c2.3,0,4.2,1.9,4.2,4.2v1.4c0,2.3-1.9,4.2-4.2,4.2H307.4c-2.3,0-4.2-1.9-4.2-4.2v-1.4
		C303.2,391.5,305.1,389.6,307.4,389.6z"/>
	<path class="st4" d="M715,367.9c-2.2,3.1-9.5,7.6-10.6,10.9c-3.2,9.9,6.7,7.2,12.2,8.2c5.5,1,9.1,5.2,11.8-1.7
		c1.9-4.8-3.1-9.4-0.8-13.9c1.4-3,2.6-6.2,3.6-9.3l-11.6-5.2C719.6,356.7,717.4,364.5,715,367.9z"/>
	<path class="st2" d="M955.4,308.1c-9.1,9.3-14.2,22.7-18.4,34.9c-8.1,23.6-26.7,17.4-45.6,24c3-6.2,3.9-9,4.4-12.7
		c1.7-13-1.5-34.2,1.7-42.5c-9.5,0-11.4,6.4-15.2,14.5c-5.6,12-10.2,24.4-15.9,36.4c0.1-1.4-14.5,1.6-16.3,2
		c-2.5,0.6-20.4,3.4-22,7.9c-5.1,14.8,20,5.6,44.7,4.7c-0.7,6.9-1.7,9.1,4.3,11.6c4.7,1.9,11,1.4,15.9,1.5c13,0.2,33.8,1.6,45.8-5.2
		c9.8-5.6,19.1-23,23.5-32.2c3.6-7.4,8.2-16.1,9.2-24.4c0.7-5.4-0.1-14.2-4.8-17.9C965.2,309.3,957,306.5,955.4,308.1L955.4,308.1z"
		/>
</g>
<path class="st2" d="M8.2,188h102.1c3.4,0,6.2,3.1,6.2,6.8v55.2c0,3.8-2.8,6.8-6.2,6.8H8.2c-3.4,0-6.2-3.1-6.2-6.8v-55.2
	C2,191.1,4.8,188,8.2,188z"/>
<path class="st0" d="M308.1,288.2h-31.9c-3.7,0-6.2-4-4.6-7.5l33.2-73.2c0.8-1.9,2.6-3,4.6-3h31.9c3.7,0,6.2,4,4.6,7.5l-33.2,73.2
	C311.9,287,310.1,288.2,308.1,288.2z"/>
<path class="st5" d="M779.1,288.2h-55.1c-1.8,0-3.3-1.5-3.3-3.3v-2.2c0-1.8,1.5-3.3,3.3-3.3h55.1c1.8,0,3.3,1.5,3.3,3.3v2.2
	C782.4,286.7,781,288.2,779.1,288.2z"/>
</svg>
