<?xml version="1.0" encoding="utf-8"?>
<!-- Generator: Adobe Illustrator 23.0.4, SVG Export Plug-In . SVG Version: 6.00 Build 0)  -->
<svg version="1.1" id="livetype" xmlns="http://www.w3.org/2000/svg" xmlns:xlink="http://www.w3.org/1999/xlink" x="0px" y="0px"
	 viewBox="0 0 128.7 40" style="enable-background:new 0 0 128.7 40;" xml:space="preserve">
<style type="text/css">
	.st0{fill:#A6A6A6;}
	.st1{fill:#FFFFFF;}
</style>
<title>Download_on_the_App_Store_Badge_US-UK_RGB_blk_4SVG_092917</title>
<g>
	<g>
		<g>
			<path class="st0" d="M110.1,0H9.5C9.2,0,8.8,0,8.4,0C8.1,0,7.8,0,7.5,0c-0.7,0-1.3,0.1-2,0.2C4.9,0.3,4.2,0.5,3.6,0.8
				C3,1.1,2.5,1.5,2,2C1.5,2.5,1.1,3,0.8,3.6C0.5,4.2,0.3,4.9,0.2,5.5C0.1,6.2,0,6.9,0,7.5c0,0.3,0,0.6,0,0.9v23.1
				c0,0.3,0,0.6,0,0.9c0,0.7,0.1,1.3,0.2,2c0.1,0.7,0.3,1.3,0.6,1.9C1.1,37,1.5,37.5,2,38c0.5,0.5,1,0.9,1.6,1.2
				c0.6,0.3,1.2,0.5,1.9,0.6c0.7,0.1,1.3,0.2,2,0.2c0.3,0,0.6,0,0.9,0c0.4,0,0.7,0,1.1,0h100.6c0.4,0,0.7,0,1.1,0c0.3,0,9.6,0,9.9,0
				c0.7,0,1.3-0.1,2-0.2c0.7-0.1,1.3-0.3,1.9-0.6c0.6-0.3,1.1-0.7,1.6-1.2c0.5-0.5,0.9-1,1.2-1.6c0.3-0.6,0.5-1.2,0.6-1.9
				c0.1-0.7,0.2-1.3,0.2-2c0-0.3,0-0.6,0-0.9c0-0.4,0-0.7,0-1.1V9.5c0-0.4,0-0.7,0-1.1c0-0.3,0-0.6,0-0.9c0-0.7-0.1-1.3-0.2-2
				c-0.1-0.7-0.3-1.3-0.6-1.9c-0.6-1.2-1.6-2.2-2.8-2.8c-0.6-0.3-1.2-0.5-1.9-0.6c-0.7-0.1-1.3-0.2-2-0.2c-0.3,0-9.6,0-9.9,0
				C110.9,0,110.5,0,110.1,0L110.1,0z"/>
			<path d="M8.4,39.1c-0.3,0-0.6,0-0.9,0c-0.6,0-1.3-0.1-1.9-0.2c-0.6-0.1-1.1-0.3-1.7-0.5c-0.5-0.3-1-0.6-1.4-1
				c-0.4-0.4-0.8-0.9-1-1.4c-0.3-0.5-0.4-1.1-0.5-1.7c-0.1-0.6-0.2-1.2-0.2-1.9c0-0.2,0-0.9,0-0.9V8.4c0,0,0-0.7,0-0.9
				c0-0.6,0.1-1.3,0.2-1.9C1.1,5.1,1.3,4.5,1.6,4c0.3-0.5,0.6-1,1-1.4C3,2.2,3.5,1.9,4,1.6c0.5-0.3,1.1-0.4,1.7-0.5
				c0.6-0.1,1.2-0.2,1.9-0.2l0.9,0h102.8l9.9,0c0.6,0,1.2,0.1,1.9,0.2c0.6,0.1,1.1,0.3,1.7,0.5c1,0.5,1.9,1.4,2.4,2.4
				c0.3,0.5,0.4,1.1,0.5,1.6c0.1,0.6,0.2,1.3,0.2,1.9c0,0.3,0,0.6,0,0.9c0,0.4,0,0.7,0,1.1v20.9c0,0.4,0,0.7,0,1.1
				c0,0.3,0,0.6,0,0.9c0,0.6-0.1,1.2-0.2,1.9c-0.1,0.6-0.3,1.1-0.5,1.7c-0.3,0.5-0.6,1-1,1.4c-0.4,0.4-0.9,0.8-1.4,1
				c-0.5,0.3-1.1,0.5-1.7,0.5c-0.6,0.1-1.2,0.2-1.9,0.2c-0.3,0-9.6,0-9.9,0l-1.1,0L8.4,39.1z"/>
		</g>
		<g id="_Group_">
			<g id="_Group_2">
				<g id="_Group_3">
					<path id="_Path_" class="st1" d="M24.8,20.3c0-1.7,0.9-3.3,2.4-4.2c-0.9-1.3-2.4-2.1-4-2.2c-1.7-0.2-3.3,1-4.2,1
						c-0.9,0-2.2-1-3.6-1c-1.9,0.1-3.6,1.1-4.5,2.7c-1.9,3.3-0.5,8.3,1.4,11c0.9,1.3,2,2.8,3.4,2.8c1.4-0.1,1.9-0.9,3.6-0.9
						c1.7,0,2.1,0.9,3.6,0.9c1.5,0,2.4-1.3,3.3-2.7c0.7-0.9,1.2-2,1.5-3.1C25.9,24,24.8,22.2,24.8,20.3z"/>
					<path id="_Path_2" class="st1" d="M22,12.2c0.8-1,1.2-2.2,1.1-3.5c-1.2,0.1-2.4,0.7-3.2,1.7c-0.8,0.9-1.2,2.1-1.1,3.4
						C20.1,13.8,21.2,13.2,22,12.2z"/>
				</g>
			</g>
		</g>
	</g>
</g>
<g>
	<path class="st1" d="M39.6,11.8c0-1.8,1.1-3.1,2.8-3.1c1.5,0,2.3,0.9,2.4,2h-1.2c-0.1-0.6-0.6-1-1.2-1c-1.1,0-1.6,0.9-1.6,2.1
		c0,1.2,0.6,2.1,1.6,2.1c0.7,0,1.2-0.4,1.3-1h1.2c0,0.5-0.3,1-0.7,1.4c-0.4,0.4-1,0.6-1.8,0.6C40.8,14.9,39.6,13.6,39.6,11.8z"/>
	<path class="st1" d="M45.7,12.6c0-1.3,0.9-2.2,2.2-2.2s2.2,1,2.2,2.2s-0.9,2.2-2.2,2.2S45.7,13.9,45.7,12.6z M49,12.6
		c0-0.8-0.4-1.4-1.1-1.4c-0.7,0-1.1,0.6-1.1,1.4s0.4,1.4,1.1,1.4C48.6,14,49,13.5,49,12.6z"/>
	<path class="st1" d="M51.1,10.5h1.1v0.6h0c0.2-0.4,0.6-0.7,1.2-0.7c0.5,0,1,0.3,1.2,0.7h0c0.3-0.5,0.7-0.7,1.3-0.7
		c0.9,0,1.4,0.6,1.4,1.5v2.9h-1.1v-2.7c0-0.5-0.2-0.7-0.7-0.7c-0.5,0-0.8,0.4-0.8,0.9v2.5h-1.1v-2.7c0-0.5-0.2-0.7-0.7-0.7
		c-0.5,0-0.8,0.4-0.8,0.9v2.5h-1.1V10.5z"/>
	<path class="st1" d="M58.4,8.8h1.1v1h-1.1V8.8z M58.4,10.5h1.1v4.2h-1.1V10.5z"/>
	<path class="st1" d="M61.8,11.1L61.8,11.1c0.3-0.5,0.7-0.7,1.3-0.7c0.9,0,1.5,0.7,1.5,1.6v2.8h-1.1v-2.6c0-0.5-0.3-0.8-0.7-0.8
		c-0.5,0-0.9,0.4-0.9,1v2.4h-1.1v-4.2h1.1V11.1z"/>
	<path class="st1" d="M65.5,14.9h1.1c0.1,0.3,0.3,0.5,0.9,0.5c0.6,0,0.9-0.3,0.9-0.9V14h0c-0.2,0.3-0.6,0.5-1.1,0.5
		c-0.9,0-1.9-0.7-1.9-2c0-1.3,0.8-2.1,1.8-2.1c0.5,0,0.9,0.2,1.2,0.6h0v-0.4h1.1v3.9c0,0.6-0.2,1-0.5,1.3c-0.4,0.3-0.9,0.5-1.5,0.5
		C66.3,16.2,65.6,15.7,65.5,14.9z M68.5,12.4c0-0.6-0.3-1.1-1-1.1c-0.6,0-1,0.4-1,1.2c0,0.7,0.4,1.1,1,1.1
		C68.2,13.6,68.5,13.1,68.5,12.4z"/>
	<path class="st1" d="M72.2,13.4h1c0.1,0.5,0.4,0.7,0.9,0.7c0.5,0,0.8-0.2,0.8-0.5c0-0.4-0.5-0.4-1.1-0.6c-0.8-0.1-1.5-0.4-1.5-1.3
		c0-0.9,0.8-1.4,1.7-1.4c1.1,0,1.7,0.6,1.8,1.4h-1c0-0.5-0.3-0.6-0.8-0.6c-0.4,0-0.7,0.2-0.7,0.5c0,0.4,0.6,0.4,1.2,0.5
		c0.7,0.1,1.5,0.3,1.5,1.3c0,0.9-0.7,1.4-1.8,1.4C72.9,14.9,72.3,14.3,72.2,13.4z"/>
	<path class="st1" d="M76.7,12.6c0-1.3,0.9-2.2,2.2-2.2c1.3,0,2.2,1,2.2,2.2s-0.9,2.2-2.2,2.2C77.6,14.9,76.7,13.9,76.7,12.6z
		 M80,12.6c0-0.8-0.4-1.4-1.1-1.4c-0.7,0-1.1,0.6-1.1,1.4s0.4,1.4,1.1,1.4C79.6,14,80,13.5,80,12.6z"/>
	<path class="st1" d="M81.9,12.6c0-1.3,0.9-2.2,2.2-2.2c1.3,0,2.2,1,2.2,2.2s-0.9,2.2-2.2,2.2C82.8,14.9,81.9,13.9,81.9,12.6z
		 M85.2,12.6c0-0.8-0.4-1.4-1.1-1.4c-0.7,0-1.1,0.6-1.1,1.4s0.4,1.4,1.1,1.4C84.8,14,85.2,13.5,85.2,12.6z"/>
	<path class="st1" d="M88.4,11.1L88.4,11.1c0.3-0.5,0.7-0.7,1.3-0.7c0.9,0,1.5,0.7,1.5,1.6v2.8H90v-2.6c0-0.5-0.3-0.8-0.7-0.8
		c-0.5,0-0.9,0.4-0.9,1v2.4h-1.1v-4.2h1.1V11.1z"/>
	<path class="st1" d="M93.8,12.6c0-1.3,0.9-2.2,2.2-2.2c1.3,0,2.2,1,2.2,2.2s-0.9,2.2-2.2,2.2C94.7,14.9,93.8,13.9,93.8,12.6z
		 M97.1,12.6c0-0.8-0.4-1.4-1.1-1.4c-0.7,0-1.1,0.6-1.1,1.4S95.3,14,96,14C96.7,14,97.1,13.5,97.1,12.6z"/>
	<path class="st1" d="M100.3,11.1L100.3,11.1c0.3-0.5,0.7-0.7,1.3-0.7c0.9,0,1.5,0.7,1.5,1.6v2.8h-1.1v-2.6c0-0.5-0.3-0.8-0.7-0.8
		c-0.5,0-0.9,0.4-0.9,1v2.4h-1.1v-4.2h1.1V11.1z"/>
	<path class="st1" d="M105.7,10.5h0.6V9.2h1.1v1.3h0.7v0.7h-0.7v2.2c0,0.3,0.2,0.4,0.4,0.4c0.1,0,0.3,0,0.3,0v0.8c0,0-0.3,0-0.7,0
		c-0.5,0-1.1-0.2-1.1-1v-2.5h-0.6V10.5z"/>
	<path class="st1" d="M110.2,11.1L110.2,11.1c0.3-0.4,0.7-0.7,1.3-0.7c0.9,0,1.5,0.7,1.5,1.6v2.8h-1.1v-2.6c0-0.5-0.3-0.8-0.7-0.8
		c-0.5,0-0.9,0.4-0.9,1v2.4h-1.1V8.8h1.1V11.1z"/>
	<path class="st1" d="M113.8,12.6c0-1.3,0.9-2.2,2.1-2.2c1.4,0,2.1,1,2.1,2.6H115c0.1,0.7,0.4,1.1,1.1,1.1c0.4,0,0.7-0.2,0.8-0.5
		h1.1c-0.2,0.8-0.8,1.4-1.9,1.4C114.6,14.9,113.8,13.9,113.8,12.6z M115,12.2h1.9c0-0.5-0.4-0.9-0.9-0.9
		C115.4,11.3,115.1,11.6,115,12.2z"/>
</g>
<g>
	<path class="st1" d="M47.3,27.1h-4.7l-1.1,3.4h-2l4.5-12.4H46l4.5,12.4h-2L47.3,27.1z M43.1,25.6h3.8L45,20.1h-0.1L43.1,25.6z"/>
	<path class="st1" d="M60.2,26c0,2.8-1.5,4.6-3.8,4.6c-1.2,0.1-2.3-0.6-2.8-1.6h0v4.5h-1.9v-12h1.8v1.5h0c0.6-1,1.7-1.6,2.9-1.6
		C58.6,21.3,60.2,23.2,60.2,26z M58.2,26c0-1.8-0.9-3-2.4-3c-1.4,0-2.4,1.2-2.4,3c0,1.8,1,3,2.4,3C57.3,29,58.2,27.8,58.2,26z"/>
	<path class="st1" d="M70.1,26c0,2.8-1.5,4.6-3.8,4.6c-1.2,0.1-2.3-0.6-2.8-1.6h0v4.5h-1.9v-12h1.8v1.5h0c0.6-1,1.7-1.6,2.9-1.6
		C68.6,21.3,70.1,23.2,70.1,26z M68.2,26c0-1.8-0.9-3-2.4-3c-1.4,0-2.4,1.2-2.4,3c0,1.8,1,3,2.4,3C67.3,29,68.2,27.8,68.2,26
		L68.2,26z"/>
	<path class="st1" d="M76.7,27c0.1,1.2,1.3,2,3,2c1.6,0,2.7-0.8,2.7-1.9c0-1-0.7-1.5-2.3-1.9l-1.6-0.4c-2.3-0.6-3.3-1.6-3.3-3.3
		c0-2.1,1.9-3.6,4.5-3.6c2.6,0,4.4,1.5,4.5,3.6h-1.9c-0.1-1.2-1.1-2-2.6-2s-2.5,0.8-2.5,1.9c0,0.9,0.7,1.4,2.3,1.8l1.4,0.3
		c2.5,0.6,3.6,1.6,3.6,3.4c0,2.3-1.9,3.8-4.8,3.8c-2.8,0-4.6-1.4-4.7-3.7L76.7,27z"/>
	<path class="st1" d="M88.3,19.3v2.1h1.7v1.5h-1.7v5c0,0.8,0.3,1.1,1.1,1.1c0.2,0,0.4,0,0.6,0v1.5c-0.3,0.1-0.7,0.1-1,0.1
		c-1.8,0-2.5-0.7-2.5-2.4v-5.2h-1.3v-1.5h1.3v-2.1H88.3z"/>
	<path class="st1" d="M91.1,26c0-2.8,1.7-4.6,4.3-4.6c2.6,0,4.3,1.8,4.3,4.6c0,2.9-1.7,4.6-4.3,4.6C92.7,30.6,91.1,28.8,91.1,26z
		 M97.8,26c0-2-0.9-3.1-2.4-3.1S93,24,93,26c0,2,0.9,3.1,2.4,3.1S97.8,27.9,97.8,26L97.8,26z"/>
	<path class="st1" d="M101.2,21.4h1.8V23h0c0.2-1,1.2-1.7,2.2-1.6c0.2,0,0.4,0,0.6,0.1v1.7c-0.3-0.1-0.6-0.1-0.8-0.1
		c-1,0-1.9,0.8-1.9,1.8c0,0.1,0,0.2,0,0.3v5.4h-1.9L101.2,21.4z"/>
	<path class="st1" d="M114.4,27.8c-0.2,1.6-1.9,2.8-3.9,2.8c-2.6,0-4.3-1.8-4.3-4.6c0-2.8,1.6-4.7,4.2-4.7c2.5,0,4.1,1.7,4.1,4.5
		v0.6h-6.4v0.1c-0.1,1.3,0.8,2.4,2.1,2.6c0.1,0,0.2,0,0.3,0c0.9,0.1,1.8-0.4,2.1-1.3L114.4,27.8z M108.1,25.1h4.5
		c0.1-1.2-0.9-2.2-2.1-2.3c-0.1,0-0.1,0-0.2,0C109.1,22.8,108.1,23.8,108.1,25.1C108.1,25.1,108.1,25.1,108.1,25.1z"/>
</g>
</svg>
