<svg xmlns="http://www.w3.org/2000/svg" width="182.583" height="231.429" viewBox="0 0 182.583 231.429"><g transform="translate(-878 -540.581)"><g transform="translate(878 540.581)"><rect width="174.556" height="224.143" rx="11" transform="translate(8.027 0)"/><rect width="172.556" height="219.143" rx="9" transform="translate(0 12.286)" fill="#fedb29"/></g><g transform="translate(894.624 572.517)"><path d="M7.022,0h50.16a7.022,7.022,0,1,1,0,14.045H7.022A7.022,7.022,0,0,1,7.022,0Z" transform="translate(0 0)" fill="#ef5144"/><rect width="64.205" height="64.205" rx="12" transform="translate(0 28.663)" fill="#ff873c"/><path d="M12,0H79.148a12,12,0,0,1,12,12V45.039a12,12,0,0,1-12,12H12a12,12,0,0,1-12-12V12A12,12,0,0,1,12,0Z" transform="translate(46.72 108.345)" fill="#5de7c8"/></g></g></svg>