<svg xmlns="http://www.w3.org/2000/svg" width="195.9" height="257.549" viewBox="0 0 195.9 257.549">
  <g id="Group_14" data-name="Group 14" transform="translate(-203 -1475.383)">
    <g id="Group_9" data-name="Group 9" transform="translate(-482.599 539.009)">
      <g id="Draw_Layer" data-name="Draw Layer" transform="translate(702.21 1017.104)">
        <path id="Path_55" data-name="Path 55" d="M1028.525,1320.918a1.91,1.91,0,1,0-1.91-1.91,1.934,1.934,0,0,0,1.91,1.91Z" transform="translate(-878.424 -1213.836)" fill="#161616"/>
        <path id="Path_56" data-name="Path 56" d="M1026.754,1319.709l.526.586a1.8,1.8,0,1,0-.665-1.287,1.85,1.85,0,0,0,.139.7Z" transform="translate(-878.424 -1213.836)" fill="#161616"/>
        <path id="Path_57" data-name="Path 57" d="M1028.525,1320.918a1.91,1.91,0,1,0-1.91-1.91,1.934,1.934,0,0,0,1.91,1.91Z" transform="translate(-878.424 -1213.836)" fill="#404040"/>
        <path id="Path_58" data-name="Path 58" d="M719.972,1218.5c0,14.252,5.552,24.645,17.434,33.148,21.9,15.669,38.183-.137,59.879-2.2,17.829-1.7,41.12,11.507,63.765,7,20.21-4.02,45.438-16.812,36.274-41.7-8.057-21.879-36.074-20.831-51.949-34.437-10.245-8.781-20.218-23.786-24.884-36.259-2.66-7.113,2.288-37.241.271-40.637.465.8-49.429,34.6-54.992,38.581-26.326,18.856-45.8,39.5-45.8,76.5Zm152.012-9.909Z" transform="translate(-719.972 -1103.424)" fill="#161616"/>
      </g>
      <g id="Draw_Layer-2" data-name="Draw Layer" transform="translate(755.657 1036.658)">
        <path id="Path_59" data-name="Path 59" d="M830.66,1225.479c0,8.744,18.539,6.255,23.279,2.151,10.066-8.716,7.922-45.5,9.138-59.393,1.023-11.689,7.569-22.428-4.424-24.152-31.206-4.486-27.993,68.586-27.993,81.395Z" transform="translate(-830.566 -1143.886)" fill="#ffe2b4"/>
      </g>
      <g id="Draw_Layer-3" data-name="Draw Layer" transform="translate(685.599 1115.359)">
        <path id="Path_60" data-name="Path 60" d="M837.725,1334.37c-13.236-15.749-33.833-25.01-55.057-27.632-1.485,3.926-6.889,6.836-13.331,6.836-6.322,0-12.126-2.8-13.726-6.617a77.009,77.009,0,0,0-26.512,8.761c-16.508,9.116-43.5,24.576-43.5,46.366,0,32.891,153.844,30.013,163.924-3.413C851.616,1351.731,842.034,1339.5,837.725,1334.37Z" transform="translate(-685.599 -1306.738)" fill="#fedb29"/>
        <path id="Path_61" data-name="Path 61" d="M843.661,1306.738c-2.284,4.087-7.51,6.946-13.6,6.946a17.515,17.515,0,0,1-13.4-6.646c-1.2,1.435-14.672,5.1-12.86,13.789.931,4.467,5.078,7.77,12.848,6.749,9.425-1.238,11.526-4.7,14.246-6.806,2.048,2.447,6.247,5.753,15.693,5.753,7,0,12.607-3.4,11.464-8.339C856.32,1310.688,847.723,1307.322,843.661,1306.738Z" transform="translate(-746.591 -1306.738)" fill="#ff873c"/>
      </g>
      <g id="Draw_Layer-4" data-name="Draw Layer" transform="translate(697.565 969.51)">
        <path id="Path_62" data-name="Path 62" d="M743.109,1121.733c31.263,14.745,51.72-25.59,61.169-48.816,17.834-43.839,8.432-77.075-44.221-65.739-29.516,6.354-52.837,9.844-49.351,43.1C712.847,1070.7,720.805,1111.213,743.109,1121.733Z" transform="translate(-710.359 -1004.94)" fill="#ffe2b4"/>
      </g>
      <g id="Draw_Layer-5" data-name="Draw Layer" transform="translate(688.341 936.374)">
        <path id="Path_63" data-name="Path 63" d="M691.273,982.177c5.627,36.126,59.549-11.01,71.068-5.714,9.183,4.221,11.323,39.171,11.8,45.059.475,5.858.776,11.662,1.487,17.5,4.581,37.653,17.135,81.139,56.893,92.747,11.19,3.267,43.053,8.888,41.167-10.23-1.228-12.45-18.033-19.219-27.439-24.177-21.414-11.286-43.292-43.111-39.035-68.027,3.36-19.668,13.408-33.445,8.484-54.072-3.446-14.433-11.994-26.728-25.349-33.463a51.643,51.643,0,0,0-34.765-4.07c-5.6,1.342-10.262,5.076-15.5,6.541-9.059,2.531-18.359.133-27.261,4.726-10.544,5.44-21.546,21.663-21.546,33.179Zm77.487-4.959Zm95.56,143.421c.177.051,1.092.508,0,0Z" transform="translate(-691.273 -936.374)" fill="#161616"/>
      </g>
    </g>
  </g>
</svg>
