<?xml version="1.0" encoding="utf-8"?>
<!-- Generator: Adobe Illustrator 23.0.1, SVG Export Plug-In . SVG Version: 6.00 Build 0)  -->
<svg version="1.1" id="Layer_1" xmlns="http://www.w3.org/2000/svg" xmlns:xlink="http://www.w3.org/1999/xlink" x="0px" y="0px"
	 viewBox="0 0 293.6 245.4" style="enable-background:new 0 0 293.6 245.4;" xml:space="preserve">
<style type="text/css">
	.st0{fill:#FEDB29;}
	.st1{fill:#FF873C;}
	.st2{fill:#FFF0A5;}
	.st3{fill:#EEBF70;}
</style>
<path class="st0" d="M122.8,0.2c-14.3,0-11.3,23.8-11,31.8c-4.1-8-19.2-24.7-21-5.1c-1,11.4,9.7,28.9,19.2,34.2
	c-0.4,0.3-0.9,0.7-1.3,1.1l0.1-0.1c-21.6,16.3-37.2,49.9-47.4,74c-7.3,17.1-13.3,32.4-14.3,51c-1.1,19.8,5.3,39.5,24.1,48.4
	c32.6,15.5,74.7,9.1,108.1-0.3c16.5-4.6,33.9-22.9,35-39.1c1.5-23.3-6.5-43.9-15.4-65.2c-5.3-12.7-15.3-26.2-23.2-37.2
	c-2.4-3.3-30.9-39.2-35.1-36.6c8.1-9.6,21.1-23.2,16.3-37c-3.9-11.4-17.8-5.8-22,3C133.9,16,132.3,0.2,122.8,0.2L122.8,0.2
	L122.8,0.2z"/>
<path d="M146.5,53.6c-11.9,0-23.8,0.7-35.7,1.2c-4.1,0.2-8.6,0.1-8.1,5.3c0.4,3.7,2.3,5.1,5.8,5.6c10.7,1.4,23.1-0.3,33.9-1.1
	c2.9-0.2,6.4-0.5,7.6-3.6C151.2,58.3,149.9,53.6,146.5,53.6L146.5,53.6L146.5,53.6z"/>
<path class="st1" d="M135,107.8c-18.9,0-39.7,7.6-47.7,26.3l0-0.1c0,0.1-0.1,0.2-0.1,0.2l0-0.1c-10.5,23.5,1.3,55.4,25.4,64.7
	c17,6.6,40.7,1.3,53.9-11.3c15-14.3,14.4-39.6,6-57.4C165.7,116,150.8,107.8,135,107.8L135,107.8L135,107.8z"/>
<path class="st2" d="M155.8,158.4c-2.7-11.2-15.2-8.2-23.6-8.4c-3.5-0.1-8.8,0.4-10.4-3.2c-3.3-7.3,5.7-9.1,10-8.5c0,0-0.2,0-0.3,0
	c3.1,0.4,5.9,0.9,8.9,1.8c1,0.3,6.1,1.7,7.2,1.5c2.2-0.4-1.7-10.2-3.5-10.7c-1.4-0.4-8.4-0.4-9.9-0.2c-0.2,0-1.8-9.3-2.4-9.3
	c-1.2,0-9,1.1-9.1,1.9c-0.2,1.5,2,8.4,1.7,8.5c-16.9,3-17.6,26.2,0.3,25.3c5.3-0.3,11.4-2.8,16.6-0.7c5.7,2.3,7.5,7.2,1.4,10.7
	c-5.6,3.3-13.5,2.6-19.7,1.6c-4.2-0.7-9.9-5.4-8.9,1.3c1,6.5,3.1,6.9,9.3,7.4c1.7,0.1,9.4-0.1,9.4-0.1c0.3,0.9-0.6,6.9,1.2,9.1
	c0.7,0.9,9.7-1,10.4-2c1-1.5-0.8-7.7-1.1-9.1c0,0,4-1.4,5-1.9c1.9-0.9,4-2.2,5.5-3.8C156.2,166.6,156.7,162.3,155.8,158.4z
	 M144.7,169.4 M143.3,138.4 M118,173.5"/>
<path class="st3" d="M242,151c0-0.2,0-0.4,0-0.6C242,150.6,242,150.8,242,151L242,151L242,151z"/>
<path class="st1" d="M52.1,242H7.5c-3.9,0-7.1-3.2-7.1-7.1v-0.4c0-3.9,3.2-7.1,7.1-7.1h44.6c3.9,0,7.1,3.2,7.1,7.1v0.4
	C59.2,238.8,56,242,52.1,242z"/>
<path class="st1" d="M52.1,225.6H7.5c-3.9,0-7.1-3.2-7.1-7.1v-0.4c0-3.9,3.2-7.1,7.1-7.1h44.6c3.9,0,7.1,3.2,7.1,7.1v0.4
	C59.2,222.4,56,225.6,52.1,225.6z"/>
<path class="st1" d="M52.1,209.2H7.5c-3.9,0-7.1-3.2-7.1-7.1v-0.4c0-3.9,3.2-7.1,7.1-7.1h44.6c3.9,0,7.1,3.2,7.1,7.1v0.4
	C59.2,206,56,209.2,52.1,209.2z"/>
<path class="st1" d="M224.8,242h-44.6c-3.9,0-7.1-3.2-7.1-7.1v-0.4c0-3.9,3.2-7.1,7.1-7.1h44.6c3.9,0,7.1,3.2,7.1,7.1v0.4
	C231.9,238.8,228.7,242,224.8,242z"/>
<path class="st1" d="M224.8,225.6h-44.6c-3.9,0-7.1-3.2-7.1-7.1v-0.4c0-3.9,3.2-7.1,7.1-7.1h44.6c3.9,0,7.1,3.2,7.1,7.1v0.4
	C231.9,222.4,228.7,225.6,224.8,225.6z"/>
<path class="st1" d="M285.8,242h-44.6c-3.9,0-7.1-3.2-7.1-7.1v-0.4c0-3.9,3.2-7.1,7.1-7.1h44.6c3.9,0,7.1,3.2,7.1,7.1v0.4
	C292.9,238.8,289.7,242,285.8,242z"/>
<path class="st1" d="M285.8,225.6h-44.6c-3.9,0-7.1-3.2-7.1-7.1v-0.4c0-3.9,3.2-7.1,7.1-7.1h44.6c3.9,0,7.1,3.2,7.1,7.1v0.4
	C292.9,222.4,289.7,225.6,285.8,225.6z"/>
<path class="st1" d="M285.8,209.2h-44.6c-3.9,0-7.1-3.2-7.1-7.1v-0.4c0-3.9,3.2-7.1,7.1-7.1h44.6c3.9,0,7.1,3.2,7.1,7.1v0.4
	C292.9,206,289.7,209.2,285.8,209.2z"/>
<path class="st1" d="M285.8,193h-44.6c-3.9,0-7.1-3.2-7.1-7.1v-0.4c0-3.9,3.2-7.1,7.1-7.1h44.6c3.9,0,7.1,3.2,7.1,7.1v0.4
	C292.9,189.8,289.7,193,285.8,193z"/>
</svg>
