<svg xmlns="http://www.w3.org/2000/svg" width="174.123" height="286.224" viewBox="0 0 174.123 286.224"><g transform="translate(-649.691 -1452.824)"><g transform="translate(-244.858 1011.392)"><g transform="translate(909.915 463.068)"><path d="M1007.164,553.163c-25.267,0-39.129,16.974-30.888,41.546,7.651,22.81,4.933,38.443,18.312,26.975,1.129-.968,2.034-7.228,2.677-7.9.438-.456,9.843-2.658,12.765-4.7,8.889-6.211,11.359-16.716,12.014-26.882.726-11.265.514-29.043-14.88-29.043Z" transform="translate(-973.897 -553.163)" fill="#b98361"/></g><g transform="translate(900.746 441.432)"><path d="M987.5,453.688c-.007-2.872-.673-8.433-2.6-10.754-3.26-3.929-.817.691-3.711,4.211-7.395,9-12.6-.054-21.556.618-21.841,1.641-37.825,20.9-31.8,42.485,2,7.159,5.308,20.139,14.319,21.131,11.887,1.308,9.03-11.638,8.07-18.728C946.375,464.273,988.188,480.958,987.5,453.688Z" transform="translate(-926.547 -441.432)" fill="#161616"/></g><g transform="translate(1007.373 511.472)"><path d="M1513.989,864.778h-34.266a2.565,2.565,0,0,1-2.559-2.556l17.061-56.552a2.565,2.565,0,0,1,2.559-2.555h34.266a2.565,2.565,0,0,1,2.559,2.555l-17.061,56.552A2.565,2.565,0,0,1,1513.989,864.778Z" transform="translate(-1477.164 -803.115)" fill="#fedb29"/></g><g transform="translate(1009.249 534.419)"><path d="M1618.829,1060.482c-3.273,0-6.434,9.655-8.381,11.827,2.078-10.672-15.712,9.6-6.288,13.913,10.753,4.921,23.4-25.74,14.669-25.74Z" transform="translate(-1579.208 -1033.59)" fill="#f9e6c8"/><path d="M1505.058,921.613c-9.1,0-25.046,19.881-14.991,19.528,3.228-.113,9-7.682,12.149-9.279,1.935-.982,7.033-.973,7.989-2.681,1.885-3.367-1.206-7.568-5.147-7.568Z" transform="translate(-1486.855 -921.613)" fill="#f9e6c8"/></g><g transform="translate(902.971 529.51)"><path d="M962.044,896.369a41.418,41.418,0,0,0-7.792,1.853c-1.9,1.109,1.645,9.689.306,11.9-.772,1.275-14.6,5.474-15.931,11.013-1.9,7.9,1.273,18.859,2.935,28,2.394,13.164,5.57,27.3,10.279,39.846.494,1.315,4.461,14.3,7.016,15.734,2.713,1.524,28.38-4.14,29.07-5.039,3.99-5.206,1.494-24.4,1.991-31.341.438-6.126.411-12.223,1.194-18.313,2.279,13,1.631,34.578,18.809,33.942,17-.629,37.633-8.877,49.847-20.68,1.326-1.281,13.995-10.559,10.183-17.353-.835-1.488-10.685,5.141-12.007,5.739-14.594,6.606-29.183,10.635-44.443,14.979a1.538,1.538,0,0,1-1.931-1.175c-1.108-5.512-2.447-20.311-2.447-20.311.506-.806,7.012-2.9,9.135-3.99,4.648-2.385,9.323-4.768,13.756-7.534,3.162-1.973,14.452-7.324,15.532-10.842,1.428-4.653-4.019-7.886-6.309-8.154-3.559-.416-11.488,5.363-15.168,6.93-6.687,2.847-12.789,5.4-19.59,7.947-2.244-12.142-3.661-17.862-14.848-20.408-4.89-1.113-19.14-.343-21.912-3.46-4.49-5.047,2.667-10.175-7.675-9.285Zm-3.878,100.062Z" transform="translate(-938.04 -896.268)" fill="#ff873c"/></g><g transform="translate(894.549 612.56)"><path d="M1574.748,1855.476a6.48,6.48,0,0,0,.689.2c-.277-.1-.542-.206-.782-.3l-.02-.009c-.24-.105-.492-.216-.747-.34a7.078,7.078,0,0,0,.859.448Z" transform="translate(-1442.335 -1752.415)" fill="#468966"/><path d="M1523.8,1819.791a.006.006,0,0,0,0,0q-.111.2-.212.415c-.057.122-.112.246-.166.372a9.61,9.61,0,0,0-.388,1.251c-.106.463-.179.9-.251,1.353l-.039.245h.081a.44.44,0,0,1,.123.016.632.632,0,0,1,.478-.228.582.582,0,0,1,.382.142c.154-.013.306-.028.455-.047a17.329,17.329,0,0,0,2.206-.483l.032-.01.055-.017.029-.009c.281-.082.665-.193,1.049-.283l.06-.015c.158-.037.315-.073.473-.106l.092-.016.025-.008c.127-.024.262-.051.386-.086l.021-.019a6.508,6.508,0,0,0,.448-.865c.117-.294.232-.589.345-.884.048-.126.1-.265.157-.438l.017-.05.038-.11.026-.039a5.6,5.6,0,0,1-.994.171c-.112.008-.224.013-.345.013-.172,0-.359-.01-.51-.018l-.043,0c-.7-.045-1.447-.106-1.99-.151l-.042,0-.155-.012-.033,0-.024,0-.319-.027c-.3-.025-.615-.027-.889-.028l-.288,0a1.842,1.842,0,0,1-.288-.021Z" transform="translate(-1401.092 -1724.001)" fill="#caf2fb"/><path d="M1535.144,1846.528c-4.644-2.695-11.693.532-16.807-1.579-4.254-1.756-7.9-5.263-12.457-.8-1.335,1.308-2.033,5.267-1.942,6.678.486,7.5,5.141,3.952,10.477,3.874,2.137-.031,4.968,2.054,7.6,2.245,3.385.246,8.737-.649,11.342-3.021C1534.5,1852.878,1538.042,1847.917,1535.144,1846.528Z" transform="translate(-1385.924 -1741.887)" fill="#ef5144"/><path d="M1674.576,1719.562c-1.175-2.49-22.649,5.758-25.812,9.062-1.688,1.762-3.159,6.239-1.877,9.068,2.654,5.857,8.987,1.354,13.119-1.219C1663.3,1734.42,1677.312,1725.394,1674.576,1719.562Z" transform="translate(-1500.805 -1642.809)" fill="#ef5144"/><path d="M1168.8,1344.854c-.068-7.582-4.368-7.538-4.368-7.538-.336-4.478-3.917-11.964-12.4-12.178-7.685-.194-17.591,5.546-24.386,8.021-9.78,3.562-19.38,7.885-29.333,10.961-3.241,1-6.588,1.8-9.909,2.475-4.32.876-10.453,2.4-14.929,1.035-3.252-.991-3.6-3.46-5.236-4.08-3.233-1.224-28.594,2.7-28.805,6.364-.687,11.887,5.258,29.231,12.928,35.752,8.544,7.263,18.959,7.464,29.391,4.445,13.318-3.853,24-12.734,34.794-21.027,6.27-4.817,13.427-6.177,20.218-9.121,2.864-.544,7.191-2.945,9.582-4.363-1.84,12.3-5.14,24.493-7.868,36.622-2.572,11.435-7.515,23.4-6.8,34.254.937-1,7.508-1.912,9.011-.986-.7-1.1,1.945-5.631,2.59-7.121l-.02.045.022-.052-.056.13c3.366-7.874,6.989-15.266,9.358-23.571.54,4.077,1.9,16.779,6.508,16.109l-.023.008c.265-.11.531-.216.8-.326l-.02.007c2.425-1.008,7.482-6.906,3.836-5.357-.2.085-6.316,10.618-6.609,2.072,16.89,2.141,5-31.3,5.472-38.909C1163.042,1360.467,1168.665,1353.283,1168.8,1344.854Zm-29.417,77.675c-.785,1.757-4.862,2.028-6.4,2.035C1132.938,1419.278,1139.948,1421.092,1139.379,1422.529Z" transform="translate(-1011.335 -1325.133)" fill="#fedb29"/><g transform="translate(119.557 78.884)"><path d="M1652.84,1734.731c-.48-3.387-2.508-2.178-4.726-1.25-1.751.75-6.99,2.254-4.455,5.635,1.26,1.682,1.581.652,2.927.3C1648.352,1738.958,1653.118,1736.711,1652.84,1734.731Zm-3.067-1.859" transform="translate(-1617.602 -1732.488)" fill="#ff873c"/><path d="M1522.717,1818.459c-1.581-1.112-6.659-.411-8.194.2-2.32.924-2.585,3.229-2.585,5.557v0c1.507,1.507.119.777,2.1,1.066,1.386.2,3.808-.568,5.065-.847a9.817,9.817,0,0,0,1.4-.258c1.381-.593,1.826.171,2.682-2.083C1523.679,1820.785,1524.123,1819.454,1522.717,1818.459Zm-10.766,5.788s0,0,0,0Z" transform="translate(-1511.937 -1801.337)" fill="#ff873c"/></g><rect width="92.754" height="44.872" rx="11" transform="translate(0 66.61)" fill="#5de7c8"/></g></g></g></svg>