<svg xmlns="http://www.w3.org/2000/svg" width="162.778" height="163.775" viewBox="0 0 162.778 163.775"><g transform="translate(0)"><g transform="translate(52.598)"><rect width="110.18" height="110.18" rx="25.297" transform="translate(0 12.713)" fill="#fedb29"/><rect width="12.183" height="16.421" transform="translate(18.54)"/><rect width="12.183" height="16.421" transform="translate(79.457)"/><path d="M170.53,720.447H280.18V707.362a13.439,13.439,0,0,0-13.4-13.4H183.4a13.439,13.439,0,0,0-13.4,13.4v13.112C170.175,720.459,170.351,720.447,170.53,720.447Z" transform="translate(-170 -681.249)" fill="#ff873c"/><rect width="30.723" height="30.723" transform="translate(60.917 67.803)" fill="#ff1d25"/></g><path d="M106.559,861v16.056h31.559v26.576H106.559v15.946L75,890.344l31.559-29.234" transform="translate(-75 -755.803)" fill="#fedb29"/><path d="M214.118,824.434,182.559,795.2v15.946H151v26.576h31.559v15.946Z" transform="translate(-108.921 -726.435)" fill="#ff873c"/></g></svg>