<svg xmlns="http://www.w3.org/2000/svg" width="168.868" height="142.292" viewBox="0 0 168.868 142.292"><ellipse cx="61.18" cy="61.18" rx="61.18" ry="61.18" transform="translate(46.508)" fill="#fedb29"/><rect width="91.355" height="47.062" rx="12" transform="translate(3.876 78.621)" fill="#ff1d25"/><rect width="97.999" height="55.367" rx="12" transform="translate(0 86.926)" fill="#ff873c"/><g transform="translate(13.566 101.823)"><path d="M881.644,563.732l-1.754-6.7h-7.614l-1.715,6.7H864.5l7.534-27.825h8.452l7.534,27.825Zm-5.382-22.045h-.318l-2.711,10.524h5.74Z" transform="translate(-864.502 -535.907)" fill="#fedb29"/><path d="M912.812,563.732V535.907h10.764a9.981,9.981,0,0,1,3.628.618,7.284,7.284,0,0,1,2.691,1.774,7.539,7.539,0,0,1,1.654,2.79,12.318,12.318,0,0,1,0,7.335,7.535,7.535,0,0,1-1.654,2.79,7.263,7.263,0,0,1-2.691,1.774,9.972,9.972,0,0,1-3.628.618h-4.744v10.126Zm6.02-14.949h3.229a4.179,4.179,0,0,0,2.93-.8,3.566,3.566,0,0,0,.817-2.631v-1.2a3.568,3.568,0,0,0-.817-2.631,4.181,4.181,0,0,0-2.93-.8h-3.229Z" transform="translate(-886.064 -535.907)" fill="#fedb29"/><path d="M955.94,563.732v-4.425h5.98V540.332h-5.98v-4.425h17.939v4.425H967.9v18.975h5.98v4.425Z" transform="translate(-905.314 -535.907)" fill="#fedb29"/></g><ellipse cx="4.706" cy="4.706" rx="4.706" ry="4.706" transform="translate(102.982 56.474)"/><path d="M1063.771,406.65l-2.457-3.685L1033.2,421.709V381h-4.429v40.839a4.719,4.719,0,1,0,6.61,3.74Z" transform="translate(-923.018 -364.944)"/></svg>