<svg xmlns="http://www.w3.org/2000/svg" width="139.157" height="138.148" viewBox="0 0 139.157 138.148"><g transform="translate(-674.26 -1223.988)"><g transform="translate(20.26 1010.988)"><circle cx="55.713" cy="55.713" r="55.713" transform="translate(681.731 213)" fill="#fedb29"/><path d="M845.4,265.358,843.158,262l-25.6,17.069V242h-4.033v37.189a4.3,4.3,0,1,0,6.019,3.406Z" transform="translate(-77.842 -14.378)"/><circle cx="37.058" cy="37.058" r="37.058" transform="translate(654 277.032)" fill="#ff873c"/><g transform="translate(676.19 289.608)"><path d="M710.358,407.368h-3.191l-.994,5.911h-4.342l.994-5.911h-4.812l6.12-36.515h4.761l.994-5.912h4.342l-.994,5.912h3.244l.941-5.912h4.342l-1.046,6.539a7.775,7.775,0,0,1,4.185,2.93,8.331,8.331,0,0,1,1.413,4.865q0,7.638-7.586,9.521l-.052.262a7.766,7.766,0,0,1,4.421,2.3,6.73,6.73,0,0,1,1.543,4.655,10.886,10.886,0,0,1-2.615,7.534,11.882,11.882,0,0,1-7.324,3.661l-.993,6.068h-4.343Zm-3.924-5.232h3.976a7.972,7.972,0,0,0,4.133-.941,4.2,4.2,0,0,0,1.936-3.087l.209-1.256q.1-.47.183-1.151a10.588,10.588,0,0,0,.078-1.2q0-2.981-4.446-2.982h-4.29Zm2.616-15.8h2.982a8.11,8.11,0,0,0,4.238-.863A4.17,4.17,0,0,0,718,382.467l.262-1.57q.1-.47.157-.863a6.227,6.227,0,0,0,.052-.811,2.7,2.7,0,0,0-1.124-2.485,6.071,6.071,0,0,0-3.217-.707h-3.348Z" transform="translate(-698.012 -364.942)" fill="#fedb29"/></g></g></g></svg>