<svg xmlns="http://www.w3.org/2000/svg" width="177.727" height="138.339" viewBox="0 0 177.727 138.339"><path d="M901,821.889c41.5-14.387,59.16-75.8,99.6-75.807,41.064-.009,17.707,58.654,46.014,75.807Z" transform="translate(-868.887 -706.804)"/><path d="M902,790.226c37.627-19.367,25.843-115.076,66.283-115.085,41.064-.009,31.657,97.378,69.925,115.085Z" transform="translate(-869.333 -675.141)" fill="#fedb29"/><rect width="109.514" height="47.062" rx="12" transform="translate(4.369 74.667)" fill="#ff1d25"/><rect width="120.146" height="55.367" rx="12" transform="translate(0 82.972)" fill="#ff873c"/><g transform="translate(15.918 97.869)"><path d="M871.75,851.907h8.969q5.622,0,8.332,3.588t2.711,10.325q0,6.737-2.711,10.325t-8.332,3.588H871.75Zm8.57,23.121a4.487,4.487,0,0,0,3.907-1.714,8.462,8.462,0,0,0,1.236-4.983v-5.063a8.383,8.383,0,0,0-1.236-4.943,4.489,4.489,0,0,0-3.907-1.714h-2.671v18.417Z" transform="translate(-871.75 -851.907)" fill="#fedb29"/><path d="M927.843,879.732l-1.754-6.7h-7.614l-1.714,6.7H910.7l7.534-27.825h8.451l7.534,27.825Zm-5.382-22.045h-.318l-2.711,10.524h5.74Z" transform="translate(-889.135 -851.907)" fill="#fedb29"/><path d="M969.26,856.81v22.922h-5.98V856.81h-8.013v-4.9h22v4.9Z" transform="translate(-909.027 -851.907)" fill="#fedb29"/><path d="M1014.242,879.732l-1.754-6.7h-7.614l-1.715,6.7H997.1l7.534-27.825h8.452l7.534,27.825Zm-5.382-22.045h-.318l-2.711,10.524h5.74Z" transform="translate(-927.698 -851.907)" fill="#fedb29"/></g></svg>