<svg xmlns="http://www.w3.org/2000/svg" width="149.47" height="133.839" viewBox="0 0 149.47 133.839"><g transform="translate(-818 -96)"><path d="M923.989,96,860,132.146H987Z" transform="translate(-21.484)" fill="#fedb29"/><rect width="91.831" height="58.616" transform="translate(856.1 132.146)" fill="#fedb29"/><rect width="112.347" height="9.769" transform="translate(845.354 190.762)" fill="#fedb29"/><rect width="130.908" height="10.746" transform="translate(836.562 200.531)" fill="#ff931e"/><path d="M899,315.266h25.015s2.828-.829,2.828-11.639V263H901.828v39.877C901.828,315.266,899,315.266,899,315.266Z" transform="translate(-41.434 -85.427)" fill="#ef5144"/><path d="M882.477,305.546H826.3s-8.3-.977-8.3-13.706V244h56.173v46.958C874.173,305.546,882.477,305.546,882.477,305.546Z" transform="translate(0 -75.707)" fill="#ff873c"/><rect width="40.054" height="17.096" transform="translate(826.304 177.573)" fill="#fedb29"/><rect width="40.054" height="4.396" transform="translate(826.304 200.043)" fill="#fedb29"/><rect width="40.054" height="4.396" transform="translate(826.304 209.324)" fill="#fedb29"/><path d="M987.5,213.1l-9.525-9.525v7.144h-19.05a4.762,4.762,0,0,1,0-9.525h19.05a9.525,9.525,0,0,0,0-19.05h-19.05V175l-9.525,9.525,9.525,9.525v-7.144h19.05a4.762,4.762,0,0,1,0,9.525h-19.05a9.525,9.525,0,0,0,0,19.05h19.05v7.144Z" transform="translate(-63.992 -39.381)"/></g></svg>