<svg xmlns="http://www.w3.org/2000/svg" width="131.436" height="138.264" viewBox="0 0 131.436 138.264"><g transform="translate(-657 -573.5)"><g transform="translate(705.785 573.5)"><path d="M817.614,661.713H772.037v-2.4a20.627,20.627,0,0,0-6.034-14.7h0a41.447,41.447,0,0,1,27.084-71.079,41.327,41.327,0,0,1,43.064,41.29,41.972,41.972,0,0,1-12.427,29.716,19.647,19.647,0,0,0-6.111,13.984Z" transform="translate(-753.501 -573.5)" fill="#fedb29"/><rect width="4.79" height="33.369" transform="translate(38.931 52.449)"/><path d="M820.211,787.965a15.39,15.39,0,0,1-15.372-15.372h30.744A15.389,15.389,0,0,1,820.211,787.965Z" transform="translate(-778.886 -671.944)"/><path d="M829.642,758.139H796.273a6.109,6.109,0,0,1-6.1-6.1V738.519h45.575v13.518A6.109,6.109,0,0,1,829.642,758.139Z" transform="translate(-771.632 -655.096)" fill="#ef5144"/><path d="M815.65,670.063l-9.269-7.415-7.773,6.219-2.993-3.741,10.766-8.612,9.269,7.415,9.269-7.415,10.766,8.612-2.993,3.741-7.773-6.219Z" transform="translate(-774.325 -614.547)"/></g><circle cx="37.157" cy="37.157" r="37.157" transform="translate(657 637.45)" fill="#ff873c"/><path d="M715.546,724l-14.777,26.832,14.777,8.555,14.777-8.166Z" transform="translate(-21.642 -74.417)" fill="#fedb29"/><path d="M700.769,783.231l14.777,8.555,14.777-8.555-14.777,20.61Z" transform="translate(-21.642 -103.704)" fill="#fedb29"/></g></svg>