<svg xmlns="http://www.w3.org/2000/svg" width="145.74" height="124.131" viewBox="0 0 145.74 124.131"><g transform="translate(-206.26 -1114)"><g transform="translate(-27.74 514)"><circle cx="55.147" cy="55.147" r="55.147" transform="translate(269.447 600)" fill="#fedb29"/><path d="M434.046,652.121l-2.215-3.322-25.343,16.9V629H402.5v36.811a4.254,4.254,0,1,0,5.958,3.371Z" transform="translate(-79.649 -14.527)"/><path d="M309.894,770.218v2.632H253.545v-2.632l6.261-6.261V745.175a21.882,21.882,0,0,1,15.653-21.006v-.908a6.261,6.261,0,0,1,12.522,0v.908a21.882,21.882,0,0,1,15.653,21.006v18.783l6.261,6.261" transform="translate(-13.284 -58.609)" fill="#ff873c"/><path d="M309.977,836.182a6.261,6.261,0,0,1-12.522,0" transform="translate(-35.28 -118.312)" fill="#ef5144"/><path d="M354.152,724.465l-4.446,4.445a28.116,28.116,0,0,1,8.359,20h6.261a34.311,34.311,0,0,0-10.174-24.449" transform="translate(-61.455 -62.349)" fill="#ef5144"/><path d="M241,748.914h6.261a28.116,28.116,0,0,1,8.359-20l-4.446-4.445A34.311,34.311,0,0,0,241,748.914Z" transform="translate(-7 -62.349)" fill="#ff873c"/></g></g></svg>