<?xml version="1.0" encoding="utf-8"?>
<!-- Generator: Adobe Illustrator 23.0.1, SVG Export Plug-In . SVG Version: 6.00 Build 0)  -->
<svg version="1.1" id="Layer_1" xmlns="http://www.w3.org/2000/svg" xmlns:xlink="http://www.w3.org/1999/xlink" x="0px" y="0px"
	 viewBox="0 0 565 112" style="enable-background:new 0 0 565 112;" xml:space="preserve">
<style type="text/css">
	.st0{fill:#1A1A1A;}
	.st1{fill:#FEDB29;}
	.st2{enable-background:new    ;}
</style>
<title>roostoo_icon</title>
<circle class="st0" cx="56" cy="56" r="56"/>
<path class="st1" d="M81.9,29.3c-5.2,0.8-9.6,4.1-12.1,8.7c-4.2,7.9-3.3,21.5-8,26.6s-8.6,7.2-20,6.5c0,0,11.2,11.5,21.2,11.1
	s19-5.7,18.9-18.8c-0.1-10.9-5-15.8-4.9-24.2C77.2,33.9,81.9,29.3,81.9,29.3z"/>
<path class="st1" d="M69,17.6c-0.1,2.5,0.4,4.9,1.4,7.1c1.7,3.1,3.1,5.2,4.3,6.2c0,0-5.5-1-7.5-4.9S68.1,18.5,69,17.6z"/>
<path class="st1" d="M58.6,82.6c1.1,0.4,2.2,0.6,3.3,0.6c1.8,0,3.6-0.1,5.4-0.5c0,0-5.4,6.8-5.4,15.5C61.9,98.3,56.2,94.7,58.6,82.6
	z"/>
<path class="st1" d="M32.6,59.5c3.5,0,6.6,2.3,7.6,5.7c2-3.6,0.6-8.1-3-10c-3.6-2-8.1-0.6-10,3c-0.6,1.1-0.9,2.3-0.9,3.5
	c0,0.3,0,0.6,0,0.9C27.9,60.7,30.2,59.5,32.6,59.5z"/>
<path class="st1" d="M35.8,37.5c-9.4,0-17,6.6-17,16c0,3.8,1.3,6.4,3.4,9.2c-0.3-1-0.4-2.1-0.4-3.1c0-6.4,5.1-11.7,11.6-11.7
	c0.1,0,0.1,0,0.2,0c7.3,0.2,11.7,6.6,11.7,13.1c0,3.7-1.6,7.2-4.3,9.7c8.9-2.8,13.9-12.4,11-21.4C49.8,42.3,43.2,37.5,35.8,37.5z"/>
<g class="st2">
	<path d="M184.3,90.4h-7.9V25h23.8c6.1,0,10.7,1.7,13.9,5c3.2,3.3,4.8,7.9,4.8,13.9c0,5.3-1.4,9.6-4.1,12.7c-2.7,3.2-6.7,5-12,5.5
		l16.7,28.3h-8.8l-15.9-27.9h-10.4V90.4z M200,55.8c3.3,0,5.9-0.8,7.7-2.5c1.8-1.7,2.8-4,2.8-7.1v-4.9c0-3.1-0.9-5.4-2.8-7.1
		c-1.8-1.7-4.4-2.5-7.7-2.5h-15.7v24H200z"/>
	<path d="M252.3,91.5c-3.4,0-6.4-0.6-9.1-1.8c-2.7-1.2-5-2.9-6.9-5.1c-1.9-2.2-3.4-4.9-4.4-8c-1-3.1-1.5-6.6-1.5-10.4
		c0-3.8,0.5-7.3,1.5-10.4c1-3.1,2.5-5.8,4.4-8c1.9-2.2,4.2-3.9,6.9-5.1c2.7-1.2,5.8-1.8,9.1-1.8c3.4,0,6.4,0.6,9.1,1.8
		c2.7,1.2,5,2.9,6.9,5.1c1.9,2.2,3.4,4.9,4.4,8c1,3.1,1.5,6.6,1.5,10.4c0,3.9-0.5,7.4-1.5,10.4c-1,3.1-2.5,5.7-4.4,8
		c-1.9,2.2-4.2,3.9-6.9,5.1C258.7,90.9,255.7,91.5,252.3,91.5z M252.3,85.1c4.2,0,7.6-1.2,10.1-3.7c2.6-2.5,3.8-6.4,3.8-11.6v-6.9
		c0-5.2-1.3-9.1-3.8-11.6c-2.6-2.5-5.9-3.7-10.1-3.7c-4.2,0-7.6,1.2-10.1,3.7c-2.6,2.5-3.8,6.4-3.8,11.6v6.9c0,5.2,1.3,9.1,3.8,11.6
		C244.8,83.8,248.1,85.1,252.3,85.1z"/>
	<path d="M308.5,91.5c-3.4,0-6.4-0.6-9.1-1.8c-2.7-1.2-5-2.9-6.9-5.1c-1.9-2.2-3.4-4.9-4.4-8c-1-3.1-1.5-6.6-1.5-10.4
		c0-3.8,0.5-7.3,1.5-10.4c1-3.1,2.5-5.8,4.4-8c1.9-2.2,4.2-3.9,6.9-5.1c2.7-1.2,5.8-1.8,9.1-1.8s6.4,0.6,9.1,1.8
		c2.7,1.2,5,2.9,6.9,5.1c1.9,2.2,3.4,4.9,4.4,8c1,3.1,1.5,6.6,1.5,10.4c0,3.9-0.5,7.4-1.5,10.4c-1,3.1-2.5,5.7-4.4,8
		c-1.9,2.2-4.2,3.9-6.9,5.1C315,90.9,311.9,91.5,308.5,91.5z M308.5,85.1c4.2,0,7.6-1.2,10.1-3.7c2.6-2.5,3.8-6.4,3.8-11.6v-6.9
		c0-5.2-1.3-9.1-3.8-11.6c-2.6-2.5-5.9-3.7-10.1-3.7c-4.2,0-7.6,1.2-10.1,3.7c-2.6,2.5-3.8,6.4-3.8,11.6v6.9c0,5.2,1.3,9.1,3.8,11.6
		C301,83.8,304.4,85.1,308.5,85.1z"/>
	<path d="M365.3,91.5c-5.1,0-9.4-0.9-13.1-2.6c-3.7-1.7-6.8-4-9.3-6.9l5.1-4.4c2.3,2.4,4.8,4.3,7.6,5.6c2.7,1.3,6.1,2,9.9,2
		c3.7,0,6.8-0.7,9.2-2c2.4-1.3,3.6-3.5,3.6-6.3c0-1.2-0.2-2.3-0.7-3.1c-0.5-0.8-1.1-1.5-1.9-2c-0.8-0.5-1.7-0.9-2.7-1.2
		c-1-0.3-2.1-0.5-3.2-0.7l-7.6-1.1c-1.7-0.2-3.5-0.6-5.5-1c-2-0.4-3.8-1.1-5.4-2.1c-1.6-1-3-2.3-4.1-3.9c-1.1-1.6-1.6-3.7-1.6-6.4
		c0-2.4,0.5-4.5,1.5-6.3c1-1.8,2.3-3.3,4.1-4.5c1.7-1.2,3.8-2.1,6.2-2.7c2.4-0.6,5-0.9,7.8-0.9c4.4,0,8.2,0.7,11.4,2.1
		c3.2,1.4,6,3.3,8.3,5.7l-4.9,4.6c-0.6-0.7-1.3-1.4-2.1-2.1c-0.8-0.7-1.9-1.4-3.1-2c-1.2-0.6-2.6-1.1-4.3-1.5
		c-1.6-0.4-3.5-0.6-5.6-0.6c-3.8,0-6.7,0.7-8.8,2c-2,1.3-3,3.2-3,5.7c0,1.2,0.2,2.3,0.7,3.1c0.5,0.8,1.1,1.5,1.9,2
		c0.8,0.5,1.7,0.9,2.8,1.2c1,0.3,2.1,0.5,3.1,0.7l7.6,1.1c1.7,0.3,3.6,0.6,5.5,1c1.9,0.4,3.7,1.1,5.3,2.1c1.6,1,3,2.3,4.1,3.9
		c1.1,1.6,1.6,3.7,1.6,6.4c0,4.8-1.9,8.5-5.6,11.2C376.5,90.2,371.5,91.5,365.3,91.5z"/>
	<path d="M423.3,90.4c-3.7,0-6.4-1-8.1-3.1c-1.7-2.1-2.6-4.7-2.6-7.9V48.5h-16.1v-6.5h12c1.6,0,2.8-0.3,3.4-1c0.7-0.7,1-1.8,1-3.4
		V25h7.2v17.1h22v6.5h-22v35.4h22v6.5H423.3z"/>
	<path d="M477.2,91.5c-3.4,0-6.4-0.6-9.1-1.8c-2.7-1.2-5-2.9-6.9-5.1c-1.9-2.2-3.4-4.9-4.4-8c-1-3.1-1.5-6.6-1.5-10.4
		c0-3.8,0.5-7.3,1.5-10.4c1-3.1,2.5-5.8,4.4-8c1.9-2.2,4.2-3.9,6.9-5.1c2.7-1.2,5.8-1.8,9.1-1.8c3.4,0,6.4,0.6,9.1,1.8
		c2.7,1.2,5,2.9,6.9,5.1c1.9,2.2,3.4,4.9,4.4,8c1,3.1,1.5,6.6,1.5,10.4c0,3.9-0.5,7.4-1.5,10.4c-1,3.1-2.5,5.7-4.4,8
		c-1.9,2.2-4.2,3.9-6.9,5.1C483.6,90.9,480.6,91.5,477.2,91.5z M477.2,85.1c4.2,0,7.6-1.2,10.1-3.7c2.6-2.5,3.8-6.4,3.8-11.6v-6.9
		c0-5.2-1.3-9.1-3.8-11.6c-2.6-2.5-5.9-3.7-10.1-3.7c-4.2,0-7.6,1.2-10.1,3.7c-2.6,2.5-3.8,6.4-3.8,11.6v6.9c0,5.2,1.3,9.1,3.8,11.6
		C469.6,83.8,473,85.1,477.2,85.1z"/>
	<path d="M533.4,91.5c-3.4,0-6.4-0.6-9.1-1.8c-2.7-1.2-5-2.9-6.9-5.1c-1.9-2.2-3.4-4.9-4.4-8c-1-3.1-1.5-6.6-1.5-10.4
		c0-3.8,0.5-7.3,1.5-10.4c1-3.1,2.5-5.8,4.4-8c1.9-2.2,4.2-3.9,6.9-5.1c2.7-1.2,5.8-1.8,9.1-1.8c3.4,0,6.4,0.6,9.1,1.8
		c2.7,1.2,5,2.9,6.9,5.1c1.9,2.2,3.4,4.9,4.4,8c1,3.1,1.5,6.6,1.5,10.4c0,3.9-0.5,7.4-1.5,10.4c-1,3.1-2.5,5.7-4.4,8
		c-1.9,2.2-4.2,3.9-6.9,5.1C539.8,90.9,536.8,91.5,533.4,91.5z M533.4,85.1c4.2,0,7.6-1.2,10.1-3.7c2.6-2.5,3.8-6.4,3.8-11.6v-6.9
		c0-5.2-1.3-9.1-3.8-11.6c-2.6-2.5-5.9-3.7-10.1-3.7s-7.6,1.2-10.1,3.7c-2.6,2.5-3.8,6.4-3.8,11.6v6.9c0,5.2,1.3,9.1,3.8,11.6
		C525.9,83.8,529.2,85.1,533.4,85.1z"/>
</g>
</svg>
