<?xml version="1.0" encoding="utf-8"?>
<!-- Generator: Adobe Illustrator 23.0.4, SVG Export Plug-In . SVG Version: 6.00 Build 0)  -->
<svg version="1.1" id="Layer_1" xmlns="http://www.w3.org/2000/svg" xmlns:xlink="http://www.w3.org/1999/xlink" x="0px" y="0px"
	 viewBox="0 0 569 112" style="enable-background:new 0 0 569 112;" xml:space="preserve">
<style type="text/css">
	.st0{fill:#1A1A1A;}
	.st1{fill:#FEDB29;}
</style>
<title>roostoo_icon</title>
<circle class="st0" cx="56" cy="56" r="56"/>
<path class="st1" d="M81.9,29.3c-5.2,0.8-9.6,4.1-12.1,8.7c-4.2,7.9-3.3,21.5-8,26.6s-8.6,7.2-20,6.5c0,0,11.2,11.5,21.2,11.1
	s19-5.7,18.9-18.8c-0.1-10.9-5-15.8-4.9-24.2C77.2,33.9,81.9,29.3,81.9,29.3z"/>
<path class="st1" d="M69,17.6c-0.1,2.5,0.4,4.9,1.4,7.1c1.7,3.1,3.1,5.2,4.3,6.2c0,0-5.5-1-7.5-4.9S68.1,18.5,69,17.6z"/>
<path class="st1" d="M58.6,82.6c1.1,0.4,2.2,0.6,3.3,0.6c1.8,0,3.6-0.1,5.4-0.5c0,0-5.4,6.8-5.4,15.5C61.9,98.3,56.2,94.7,58.6,82.6
	z"/>
<path class="st1" d="M32.6,59.5c3.5,0,6.6,2.3,7.6,5.7c2-3.6,0.6-8.1-3-10c-3.6-2-8.1-0.6-10,3c-0.6,1.1-0.9,2.3-0.9,3.5
	c0,0.3,0,0.6,0,0.9C27.9,60.7,30.2,59.5,32.6,59.5z"/>
<path class="st1" d="M35.8,37.5c-9.4,0-17,6.6-17,16c0,3.8,1.3,6.4,3.4,9.2c-0.3-1-0.4-2.1-0.4-3.1c0-6.4,5.1-11.7,11.6-11.7
	c0.1,0,0.1,0,0.2,0c7.3,0.2,11.7,6.6,11.7,13.1c0,3.7-1.6,7.2-4.3,9.7c8.9-2.8,13.9-12.4,11-21.4C49.8,42.3,43.2,37.5,35.8,37.5z"/>
<g>
	<path d="M188.4,90.5h-13.6v-64h24.8c3.1,0,5.9,0.5,8.3,1.4c2.4,0.9,4.5,2.3,6.2,4.1c1.7,1.8,2.9,3.9,3.8,6.4
		c0.9,2.5,1.3,5.3,1.3,8.4c0,4.5-1,8.4-2.9,11.6c-2,3.2-4.7,5.4-8.3,6.4l12.6,25.6h-15l-10.7-23.7h-6.3v23.8H188.4z M196.3,56.1
		c3.2,0,5.5-0.6,6.7-1.8c1.3-1.2,1.9-3.2,1.9-6.1v-2.8c0-2.8-0.6-4.8-1.9-6.1c-1.3-1.2-3.5-1.8-6.7-1.8h-7.9V56L196.3,56.1
		L196.3,56.1z"/>
	<path d="M250.4,91.6c-3.7,0-7-0.6-9.9-1.7s-5.4-2.8-7.5-4.9c-2-2.1-3.6-4.7-4.7-7.8c-1.1-3.1-1.7-6.5-1.7-10.4s0.6-7.3,1.7-10.4
		c1.1-3.1,2.7-5.7,4.7-7.8s4.5-3.8,7.5-4.9c2.9-1.1,6.2-1.7,9.9-1.7s7,0.6,9.9,1.7c2.9,1.1,5.4,2.8,7.5,4.9c2,2.1,3.6,4.7,4.7,7.8
		s1.7,6.5,1.7,10.4s-0.6,7.3-1.7,10.4s-2.7,5.7-4.7,7.8c-2,2.1-4.5,3.8-7.5,4.9C257.4,91,254.1,91.6,250.4,91.6z M250.4,81.5
		c3.1,0,5.4-0.9,7.2-2.8c1.7-1.9,2.6-4.6,2.6-8.1v-7.5c0-3.5-0.9-6.2-2.6-8.1c-1.7-1.9-4.1-2.8-7.2-2.8c-3.1,0-5.4,0.9-7.2,2.8
		c-1.7,1.9-2.6,4.6-2.6,8.1v7.5c0,3.5,0.9,6.2,2.6,8.1C245,80.6,247.4,81.5,250.4,81.5z"/>
	<path d="M305.4,91.6c-3.7,0-7-0.6-9.9-1.7s-5.4-2.8-7.5-4.9c-2-2.1-3.6-4.7-4.7-7.8s-1.7-6.5-1.7-10.4s0.6-7.3,1.7-10.4
		c1.1-3.1,2.7-5.7,4.7-7.8s4.5-3.8,7.5-4.9c2.9-1.1,6.2-1.7,9.9-1.7s7,0.6,9.9,1.7c2.9,1.1,5.4,2.8,7.5,4.9c2,2.1,3.6,4.7,4.7,7.8
		s1.7,6.5,1.7,10.4s-0.5,7.3-1.7,10.4c-1.1,3.1-2.7,5.7-4.7,7.8c-2,2.1-4.5,3.8-7.5,4.9C312.4,91,309.1,91.6,305.4,91.6z
		 M305.4,81.5c3.1,0,5.4-0.9,7.2-2.8c1.7-1.9,2.6-4.6,2.6-8.1v-7.5c0-3.5-0.9-6.2-2.6-8.1c-1.7-1.9-4.1-2.8-7.2-2.8
		s-5.4,0.9-7.2,2.8c-1.7,1.9-2.6,4.6-2.6,8.1v7.5c0,3.5,0.9,6.2,2.6,8.1C300,80.6,302.4,81.5,305.4,81.5z"/>
	<path d="M359.9,91.6c-5.3,0-9.8-0.8-13.7-2.4c-3.9-1.6-6.8-3.8-8.8-6.5l7.6-7.1c1.8,2,4,3.6,6.5,4.7s5.3,1.7,8.5,1.7
		c2.7,0,4.8-0.4,6.3-1.2c1.5-0.8,2.3-2.1,2.3-3.8c0-1.3-0.5-2.3-1.6-2.8c-1-0.5-2.5-0.9-4.3-1.2l-7.6-1.2c-2.1-0.3-4.1-0.8-6-1.4
		c-1.8-0.6-3.4-1.5-4.8-2.6c-1.3-1.1-2.4-2.4-3.2-4c-0.8-1.6-1.2-3.5-1.2-5.8c0-5,1.9-8.8,5.7-11.6c3.8-2.8,9.1-4.2,16-4.2
		c4.6,0,8.6,0.6,11.9,1.9c3.3,1.3,5.9,3,7.8,5.4l-6.8,7.7c-1.4-1.5-3.2-2.8-5.4-3.9c-2.2-1-4.9-1.6-8-1.6c-5.3,0-7.9,1.6-7.9,4.8
		c0,1.4,0.5,2.4,1.6,2.9c1,0.5,2.5,0.9,4.3,1.2l7.5,1.2c2.1,0.3,4.1,0.8,6,1.4c1.8,0.6,3.4,1.5,4.8,2.6c1.4,1.1,2.5,2.4,3.3,4
		s1.2,3.5,1.2,5.8c0,5-1.9,8.9-5.7,11.7C372.4,90.2,366.9,91.6,359.9,91.6z"/>
	<path d="M419.1,90.5c-4.9,0-8.5-1.3-10.9-3.8s-3.6-5.8-3.6-9.8v-23h-12.8V43.2h8.3c2,0,3.5-0.4,4.3-1.2c0.9-0.8,1.3-2.3,1.3-4.4
		V26.5h12.5v16.7h18.4v10.6h-18.4v26h18.4v10.6L419.1,90.5L419.1,90.5z"/>
	<path d="M470.5,91.6c-3.7,0-7-0.6-9.9-1.7s-5.4-2.8-7.5-4.9c-2-2.1-3.6-4.7-4.7-7.8c-1.1-3.1-1.7-6.5-1.7-10.4s0.5-7.3,1.7-10.4
		c1.1-3.1,2.7-5.7,4.7-7.8s4.5-3.8,7.5-4.9c2.9-1.1,6.2-1.7,9.9-1.7c3.7,0,7,0.6,9.9,1.7c2.9,1.1,5.4,2.8,7.5,4.9
		c2,2.1,3.6,4.7,4.7,7.8s1.7,6.5,1.7,10.4s-0.5,7.3-1.7,10.4s-2.7,5.7-4.7,7.8c-2,2.1-4.5,3.8-7.5,4.9S474.1,91.6,470.5,91.6z
		 M470.5,81.5c3.1,0,5.4-0.9,7.2-2.8c1.7-1.9,2.6-4.6,2.6-8.1v-7.5c0-3.5-0.9-6.2-2.6-8.1c-1.7-1.9-4.1-2.8-7.2-2.8
		s-5.4,0.9-7.2,2.8c-1.7,1.9-2.6,4.6-2.6,8.1v7.5c0,3.5,0.9,6.2,2.6,8.1S467.4,81.5,470.5,81.5z"/>
	<path d="M525.5,91.6c-3.7,0-7-0.6-9.9-1.7s-5.4-2.8-7.5-4.9c-2-2.1-3.6-4.7-4.7-7.8c-1.1-3.1-1.7-6.5-1.7-10.4s0.5-7.3,1.7-10.4
		c1.1-3.1,2.7-5.7,4.7-7.8s4.5-3.8,7.5-4.9c2.9-1.1,6.2-1.7,9.9-1.7s7,0.6,9.9,1.7c2.9,1.1,5.4,2.8,7.5,4.9c2,2.1,3.6,4.7,4.7,7.8
		c1.1,3.1,1.7,6.5,1.7,10.4s-0.5,7.3-1.7,10.4s-2.7,5.7-4.7,7.8c-2,2.1-4.5,3.8-7.5,4.9C532.5,91,529.2,91.6,525.5,91.6z
		 M525.5,81.5c3.1,0,5.4-0.9,7.2-2.8c1.7-1.9,2.6-4.6,2.6-8.1v-7.5c0-3.5-0.9-6.2-2.6-8.1c-1.7-1.9-4.1-2.8-7.2-2.8
		c-3.1,0-5.4,0.9-7.2,2.8c-1.7,1.9-2.6,4.6-2.6,8.1v7.5c0,3.5,0.9,6.2,2.6,8.1C520.1,80.6,522.4,81.5,525.5,81.5z"/>
</g>
</svg>
