<?xml version="1.0" encoding="utf-8"?>
<!-- Generator: Adobe Illustrator 23.0.1, SVG Export Plug-In . SVG Version: 6.00 Build 0)  -->
<svg version="1.1" id="Layer_1" xmlns="http://www.w3.org/2000/svg" xmlns:xlink="http://www.w3.org/1999/xlink" x="0px" y="0px"
	 viewBox="0 0 681 112" style="enable-background:new 0 0 681 112;" xml:space="preserve">
<style type="text/css">
	.st0{fill:#1A1A1A;}
	.st1{fill:#FEDB29;}
	.st2{font-family:'IBMPlexMono';}
	.st3{font-size:93.6987px;}
</style>
<title>roostoo_icon</title>
<circle class="st0" cx="56" cy="56" r="56"/>
<path class="st1" d="M81.9,29.3c-5.2,0.8-9.6,4.1-12.1,8.7c-4.2,7.9-3.3,21.5-8,26.6c-4.7,5.1-8.6,7.2-20,6.5
	c0,0,11.2,11.5,21.2,11.1s19-5.7,18.9-18.8c-0.1-10.9-5-15.8-4.9-24.2C77.2,33.9,81.9,29.3,81.9,29.3z"/>
<path class="st1" d="M69,17.6c-0.1,2.5,0.4,4.9,1.4,7.1c1.7,3.1,3.1,5.2,4.3,6.2c0,0-5.5-1-7.5-4.9S68.1,18.5,69,17.6z"/>
<path class="st1" d="M58.6,82.6c1.1,0.4,2.2,0.6,3.3,0.6c1.8,0,3.6-0.1,5.4-0.5c0,0-5.4,6.8-5.4,15.5C61.9,98.3,56.2,94.7,58.6,82.6
	z"/>
<path class="st1" d="M32.6,59.5c3.5,0,6.6,2.3,7.6,5.7c2-3.6,0.6-8.1-3-10c-3.6-2-8.1-0.6-10,3c-0.6,1.1-0.9,2.3-0.9,3.5
	c0,0.3,0,0.6,0,0.9C27.9,60.7,30.2,59.5,32.6,59.5z"/>
<path class="st1" d="M35.8,37.5c-9.4,0-17,6.6-17,16c0,3.8,1.3,6.4,3.4,9.2c-0.3-1-0.4-2.1-0.4-3.1c0-6.4,5.1-11.7,11.6-11.7
	c0.1,0,0.1,0,0.2,0c7.3,0.2,11.7,6.6,11.7,13.1c0,3.7-1.6,7.2-4.3,9.7c8.9-2.8,13.9-12.4,11-21.4C49.8,42.3,43.2,37.5,35.8,37.5z"/>
<text transform="matrix(1 0 0 1 167.999 90.4051)" class="st2 st3">Roostoo</text>
</svg>
