<svg id="Layer_1" data-name="Layer 1" xmlns="http://www.w3.org/2000/svg" viewBox="0 0 112 112"><defs><style>.cls-1{fill:#1a1a1a;}.cls-2{fill:#fedb29;}</style></defs><title>roostoo_icon</title><circle class="cls-1" cx="56" cy="56" r="56"/><path class="cls-2" d="M82.18,29.6a16.65,16.65,0,0,0-12.07,8.74c-4.16,7.9-3.33,21.5-8,26.63s-8.6,7.22-20,6.52c0,0,11.24,11.52,21.22,11.1s19-5.69,18.87-18.84c-.09-10.91-5-15.84-4.86-24.16C77.41,34.17,82.18,29.6,82.18,29.6Z" transform="translate(-0.26 -0.26)"/><path class="cls-2" d="M69.26,17.85A15.36,15.36,0,0,0,70.66,25c1.66,3.11,3.07,5.23,4.32,6.19,0,0-5.53-1-7.5-4.88S68.37,18.74,69.26,17.85Z" transform="translate(-0.26 -0.26)"/><path class="cls-2" d="M58.83,82.83a9.37,9.37,0,0,0,3.3.64A25.81,25.81,0,0,0,67.57,83s-5.37,6.76-5.44,15.5C62.13,98.53,56.41,95,58.83,82.83Z" transform="translate(-0.26 -0.26)"/><path class="cls-2" d="M32.9,59.79a7.9,7.9,0,0,1,7.6,5.74A7.41,7.41,0,1,0,26.58,62a8.85,8.85,0,0,0,.05.89A7.87,7.87,0,0,1,32.9,59.79Z" transform="translate(-0.26 -0.26)"/><path class="cls-2" d="M36.08,37.8c-9.39,0-17,6.6-17,16,0,3.85,1.28,6.38,3.44,9.23a11.39,11.39,0,0,1-.43-3.11A11.65,11.65,0,0,1,33.82,48.19c7.27.15,11.73,6.6,11.73,13.08A13.17,13.17,0,0,1,41.26,71,17,17,0,0,0,36.08,37.8Z" transform="translate(-0.26 -0.26)"/></svg>